<?xml version="1.0" encoding="UTF-8"?>
<svg version="1.1" xmlns="http://www.w3.org/2000/svg" width="512" height="512">
<path d="M0 0 C1.30762802 -0.00619858 2.61525604 -0.01239716 3.96250916 -0.01878357 C6.72038492 -0.02915078 9.4777435 -0.02467859 12.2355957 -0.01000977 C15.75871837 0.00720203 19.28021365 -0.01636228 22.80315495 -0.05149937 C26.18136486 -0.07880993 29.55918491 -0.06873596 32.9375 -0.0625 C34.19699966 -0.07575821 35.45649933 -0.08901642 36.75416565 -0.10267639 C46.48807229 0.00086828 46.48807229 0.00086828 50.15795898 2.88305664 C53.75948876 7.18898656 54.40234375 11.04904152 54.40234375 16.56640625 C55.58207764 16.54284058 55.58207764 16.54284058 56.78564453 16.51879883 C60.36613713 16.4562471 63.94651451 16.41735074 67.52734375 16.37890625 C69.38359375 16.34120117 69.38359375 16.34120117 71.27734375 16.30273438 C73.07558594 16.28823242 73.07558594 16.28823242 74.91015625 16.2734375 C76.0098877 16.25772705 77.10961914 16.2420166 78.24267578 16.22583008 C83.34251514 16.7755346 86.52266146 18.70671674 90.15234375 22.25390625 C93.27109341 26.2893491 93.88135728 30.73819401 94.78515625 35.64453125 C96.14627822 42.12842135 99.22016805 46.18934232 104.58984375 50.19140625 C108.54637125 53.53247391 109.263772 55.26435469 109.81640625 60.45703125 C109.89564256 61.90969698 109.96571044 63.36288726 110.02734375 64.81640625 C110.06601562 65.56148438 110.1046875 66.3065625 110.14453125 67.07421875 C110.23839483 68.90455865 110.32144093 70.73544768 110.40234375 72.56640625 C111.02109375 71.53515625 111.63984375 70.50390625 112.27734375 69.44140625 C117.31522154 62.45064325 125.26443608 59.02667804 133.44140625 57.0234375 C138.75342001 56.20350926 144.04561093 56.336467 149.40234375 56.56640625 C150.13671828 82.08874559 149.16043349 114.42927164 134.40234375 136.56640625 C141.99234375 136.56640625 149.58234375 136.56640625 157.40234375 136.56640625 C154.26696878 158.51403103 140.30933716 180.51723023 123.140625 194.39453125 C108.93600268 204.91647371 95.03113081 208.56640625 77.40234375 208.56640625 C77.40234375 298.65640625 77.40234375 388.74640625 77.40234375 481.56640625 C7.27094693 499.09925545 7.27094693 499.09925545 -28.80427551 498.65060425 C-30.79185775 498.64044382 -32.77944033 498.63030969 -34.76702798 498.62127038 C-36.80831931 498.61089093 -38.84955 498.59626899 -40.89081216 498.58128881 C-45.10257311 498.55395547 -49.31391194 498.55988722 -53.52571678 498.57364273 C-54.59358035 498.57709047 -54.59358035 498.57709047 -55.68301692 498.58060787 C-57.13129612 498.58540596 -58.5795751 498.59026921 -60.02785387 498.59519674 C-73.37313208 498.63723444 -86.71682443 498.58991001 -100.06184205 498.50819124 C-111.45891122 498.44057059 -122.85369902 498.45344142 -134.25073242 498.52197266 C-147.63718266 498.60243361 -161.0222896 498.63380423 -174.40894765 498.5877887 C-175.83639995 498.58301213 -177.26385245 498.57829653 -178.69130516 498.57364273 C-179.392928 498.5713286 -180.09455083 498.56901447 -180.81743497 498.56663021 C-185.71512105 498.55378297 -190.61193457 498.57529471 -195.50948524 498.61083603 C-202.0835556 498.65752452 -208.65398146 498.62385921 -215.22786713 498.53742218 C-217.62586755 498.51770265 -220.02423603 498.52309086 -222.42208672 498.55636215 C-233.68224047 498.69816318 -243.82784419 498.55043914 -252.5355835 490.61781311 C-261.86990366 480.57439062 -260.58491776 467.65952396 -260.30053711 454.80297852 C-260.29629988 452.11091587 -260.29803344 449.4194661 -260.30717468 446.72747803 C-260.3149955 440.95790368 -260.26842117 435.19089684 -260.1836071 429.42196846 C-260.06107169 421.08180562 -260.02257354 412.74286904 -260.00378723 404.40190374 C-259.97105407 390.86611102 -259.8714982 377.33168344 -259.72924805 363.79663086 C-259.59130911 350.65802788 -259.48525912 337.51979727 -259.42163086 324.38061523 C-259.41769001 323.56910629 -259.41374915 322.75759735 -259.40968888 321.92149723 C-259.39011162 317.84990762 -259.37115641 313.7783154 -259.35251033 309.70672143 C-259.19731023 275.99228396 -258.9322581 242.27953606 -258.59765625 208.56640625 C-252.98765625 208.23640625 -247.37765625 207.90640625 -241.59765625 207.56640625 C-243.70140625 205.93703125 -245.80515625 204.30765625 -247.97265625 202.62890625 C-269.93416864 185.39957384 -269.93416864 185.39957384 -272.59765625 172.56640625 C-272.62410794 170.8999495 -272.62888302 169.23278036 -272.59765625 167.56640625 C-273.56316406 167.52902344 -274.52867187 167.49164063 -275.5234375 167.453125 C-286.20611337 166.98965457 -296.87699754 166.26061415 -307.53720093 165.43399048 C-309.11342635 165.3143703 -310.69012783 165.20085926 -312.26724243 165.09359741 C-314.52096132 164.93874047 -316.77184376 164.76104173 -319.0234375 164.578125 C-320.33739502 164.47975342 -321.65135254 164.38138184 -323.00512695 164.2800293 C-329.83260418 162.92381347 -333.56895527 158.8612704 -337.59765625 153.56640625 C-339.57215294 149.61741288 -339.03536123 144.87050521 -338.59765625 140.56640625 C-336.461191 136.13521906 -334.22188103 133.33738595 -329.59765625 131.56640625 C-318.94392579 129.93766016 -308.47674107 134.0771622 -298.41015625 137.06640625 C-296.58176891 137.5976937 -294.75299517 138.12765325 -292.92382812 138.65625 C-288.47716487 139.94435795 -284.0361274 141.25036089 -279.59765625 142.56640625 C-279.26765625 142.23640625 -278.93765625 141.90640625 -278.59765625 141.56640625 C-279.21769531 141.06753906 -279.83773437 140.56867188 -280.4765625 140.0546875 C-286.77181357 134.95067754 -292.92605739 129.71286077 -299.02734375 124.37963867 C-302.83870456 121.05785067 -306.70712359 117.84307583 -310.66015625 114.69140625 C-321.56447699 105.75343843 -321.56447699 105.75343843 -322.66015625 99.06640625 C-322.92809372 93.23132353 -320.9634975 89.22756453 -317.28515625 84.75390625 C-313.11062881 81.35603508 -309.54522492 80.33014542 -304.22265625 80.50390625 C-291.43599124 82.46126595 -280.47452927 101.41754057 -272.84375 110.8125 C-268.80405105 115.76552219 -264.69693615 120.66267476 -260.59765625 125.56640625 C-262.34792929 118.17394868 -264.17676905 110.84132281 -266.421875 103.58203125 C-266.89741821 102.02838867 -266.89741821 102.02838867 -267.38256836 100.44335938 C-268.01124198 98.40641232 -268.65334211 96.37354552 -269.31079102 94.34570312 C-271.75309665 86.38874988 -273.59618724 77.78552723 -269.91015625 70.00390625 C-265.81145774 65.68365647 -263.11247967 64.3789361 -257.16015625 64.12890625 C-250.55313328 64.33288146 -247.54897164 66.70378701 -242.84765625 71.19140625 C-238.03449932 77.31647086 -238.24889002 86.80688077 -237.74609375 94.29296875 C-237.65045639 95.60350723 -237.65045639 95.60350723 -237.55288696 96.94052124 C-237.35355749 99.69042991 -237.16294872 102.44085902 -236.97265625 105.19140625 C-236.83781979 107.07295834 -236.70240812 108.95446929 -236.56640625 110.8359375 C-236.23684959 115.41231272 -235.9151042 119.9891758 -235.59765625 124.56640625 C-235.59401062 123.75287689 -235.59036499 122.93934753 -235.58660889 122.10116577 C-235.54868582 114.42094088 -235.49178479 106.74119877 -235.41375351 99.06128502 C-235.37430428 95.11326856 -235.34210354 91.16547428 -235.32666016 87.21728516 C-235.31147632 83.40445638 -235.27700132 79.5922385 -235.22934723 75.77968216 C-235.21455101 74.32774806 -235.20661624 72.87572674 -235.2057724 71.4237175 C-235.20339543 69.38387263 -235.17626313 67.3457062 -235.14355469 65.30615234 C-235.13023102 63.56741348 -235.13023102 63.56741348 -235.11663818 61.79354858 C-234.31264382 56.79413711 -231.73829946 53.70704946 -228.22265625 50.19140625 C-224.59765625 48.56640625 -224.59765625 48.56640625 -210.59765625 48.56640625 C-210.59765625 38.00640625 -210.59765625 27.44640625 -210.59765625 16.56640625 C-200.03765625 16.56640625 -189.47765625 16.56640625 -178.59765625 16.56640625 C-178.59765625 27.12640625 -178.59765625 37.68640625 -178.59765625 48.56640625 C-173.97765625 48.56640625 -169.35765625 48.56640625 -164.59765625 48.56640625 C-160.91015625 50.56640625 -160.91015625 50.56640625 -158.59765625 52.56640625 C-155.06793771 52.56640625 -154.26821971 51.83183429 -151.41015625 49.87890625 C-140.22975585 43.00491007 -127.46958653 40.80551448 -114.59765625 39.56640625 C-115.34789062 39.27507813 -116.098125 38.98375 -116.87109375 38.68359375 C-128.23466712 34.13243968 -138.71551518 29.12585049 -145.53515625 18.56640625 C-146.76996775 15.07987966 -146.67130986 12.24042143 -146.59765625 8.56640625 C-142.36598141 8.44144765 -138.13532452 8.35144148 -133.90234375 8.29174805 C-132.46693177 8.2668277 -131.03164368 8.2328775 -129.59667969 8.18920898 C-119.20689729 7.88128308 -111.51527825 8.8789041 -103.1171875 15.53125 C-97.63504636 21.86644743 -90.96132903 30.89917208 -90.41015625 39.48828125 C-90.47203125 40.1740625 -90.53390625 40.85984375 -90.59765625 41.56640625 C-89.54578125 41.48390625 -88.49390625 41.40140625 -87.41015625 41.31640625 C-73.09457587 41.36708087 -61.77677632 49.45332678 -51.59765625 58.56640625 C-51.5836377 57.34123291 -51.5836377 57.34123291 -51.56933594 56.09130859 C-51.51550118 52.37407119 -51.43187631 48.65807425 -51.34765625 44.94140625 C-51.33347656 43.65621094 -51.31929688 42.37101562 -51.3046875 41.046875 C-50.99600123 29.13158501 -50.99600123 29.13158501 -46.59765625 24.56640625 C-43.17506442 21.37537592 -39.80486377 19.59984583 -35.47265625 17.87890625 C-33.92191406 17.25435547 -33.92191406 17.25435547 -32.33984375 16.6171875 C-30.44194212 15.8899289 -28.52582691 15.2091298 -26.59765625 14.56640625 C-25.58849592 12.80048738 -25.58849592 12.80048738 -24.59765625 10.56640625 C-18.66399958 0.01768328 -11.13735694 -0.04392916 0 0 Z " fill="#F9D179" transform="translate(346.59765625,7.43359375)"/>
<path d="M0 0 C1.30762802 -0.00619858 2.61525604 -0.01239716 3.96250916 -0.01878357 C6.72038492 -0.02915078 9.4777435 -0.02467859 12.2355957 -0.01000977 C15.75871837 0.00720203 19.28021365 -0.01636228 22.80315495 -0.05149937 C26.18136486 -0.07880993 29.55918491 -0.06873596 32.9375 -0.0625 C34.19699966 -0.07575821 35.45649933 -0.08901642 36.75416565 -0.10267639 C46.48807229 0.00086828 46.48807229 0.00086828 50.15795898 2.88305664 C53.75948876 7.18898656 54.40234375 11.04904152 54.40234375 16.56640625 C55.58207764 16.54284058 55.58207764 16.54284058 56.78564453 16.51879883 C60.36613713 16.4562471 63.94651451 16.41735074 67.52734375 16.37890625 C68.76484375 16.35376953 70.00234375 16.32863281 71.27734375 16.30273438 C73.07558594 16.28823242 73.07558594 16.28823242 74.91015625 16.2734375 C76.0098877 16.25772705 77.10961914 16.2420166 78.24267578 16.22583008 C83.34251514 16.7755346 86.52266146 18.70671674 90.15234375 22.25390625 C93.27109341 26.2893491 93.88135728 30.73819401 94.78515625 35.64453125 C96.14627822 42.12842135 99.22016805 46.18934232 104.58984375 50.19140625 C108.54637125 53.53247391 109.263772 55.26435469 109.81640625 60.45703125 C109.89564256 61.90969698 109.96571044 63.36288726 110.02734375 64.81640625 C110.06601562 65.56148438 110.1046875 66.3065625 110.14453125 67.07421875 C110.23839483 68.90455865 110.32144093 70.73544768 110.40234375 72.56640625 C111.02109375 71.53515625 111.63984375 70.50390625 112.27734375 69.44140625 C117.31522154 62.45064325 125.26443608 59.02667804 133.44140625 57.0234375 C138.75342001 56.20350926 144.04561093 56.336467 149.40234375 56.56640625 C150.13671828 82.08874559 149.16043349 114.42927164 134.40234375 136.56640625 C141.99234375 136.56640625 149.58234375 136.56640625 157.40234375 136.56640625 C154.26696878 158.51403103 140.30933716 180.51723023 123.140625 194.39453125 C108.93600268 204.91647371 95.03113081 208.56640625 77.40234375 208.56640625 C77.40234375 298.65640625 77.40234375 388.74640625 77.40234375 481.56640625 C17.40234375 496.56640625 17.40234375 496.56640625 13.40234375 495.56640625 C13.76121674 495.03658142 14.12008972 494.50675659 14.48983765 493.96087646 C18.22366522 488.44739339 21.95411807 482.93163855 25.68261719 477.41455078 C27.07465536 475.35569712 28.46755371 473.29742477 29.86132812 471.23974609 C31.8642442 468.28244906 33.86406026 465.32307711 35.86328125 462.36328125 C36.79930679 460.9833902 36.79930679 460.9833902 37.75424194 459.57562256 C38.33469269 458.71503235 38.91514343 457.85444214 39.51318359 456.96777344 C40.27929459 455.83526154 40.27929459 455.83526154 41.06088257 454.67987061 C43.30222425 451.14864971 44.6507911 448.56222006 44.66405678 444.32604599 C44.67152227 443.48206686 44.67898776 442.63808773 44.68667948 441.76853347 C44.68474475 440.84635724 44.68281001 439.92418102 44.68081665 438.97406006 C44.68950525 437.49885466 44.68950525 437.49885466 44.69836938 435.99384713 C44.71541107 432.68955002 44.7182495 429.38539223 44.72119141 426.08105469 C44.7304867 423.71595923 44.74065476 421.35086706 44.75163269 418.98577881 C44.77899171 412.55647565 44.7940996 406.12719447 44.80706072 399.69784832 C44.82014086 393.66209893 44.84422365 387.62638947 44.86733107 381.59067181 C44.91280272 369.63566171 44.94941598 357.68064154 44.98046875 345.72558594 C45.01065277 334.11228667 45.04502509 322.49901218 45.08496094 310.88574219 C45.08744245 310.16261345 45.08992395 309.43948472 45.09248066 308.69444299 C45.11410255 302.40427464 45.13604186 296.11410741 45.15801239 289.82394028 C45.2522071 262.73812347 45.32555595 235.65229094 45.40234375 208.56640625 C-21.25765625 208.56640625 -87.91765625 208.56640625 -156.59765625 208.56640625 C-160.50500178 198.79804242 -162.08824787 188.05422591 -162.59765625 177.56640625 C-162.69433594 176.02726562 -162.69433594 176.02726562 -162.79296875 174.45703125 C-163.12600312 165.17647344 -161.67869443 156.30464489 -156.54318237 148.40689087 C-154.15788819 144.25840378 -154.07654541 140.74966468 -154.20361328 136.04833984 C-154.20957016 135.22629562 -154.21552704 134.4042514 -154.22166443 133.55729675 C-154.24639513 130.85916298 -154.30033336 128.16251372 -154.35546875 125.46484375 C-154.38031986 123.58112481 -154.40364233 121.69738513 -154.42550659 119.81362915 C-154.47548545 115.87446813 -154.5390775 111.93584813 -154.61328125 107.99707031 C-154.70791631 102.95227779 -154.77606442 97.90757212 -154.83499336 92.86224937 C-154.88202033 88.97593144 -154.93925692 85.08981968 -154.99996567 81.20369339 C-155.02852253 79.34341385 -155.05479848 77.48309782 -155.07873917 75.62275314 C-155.1144778 73.02344893 -155.16303416 70.4247007 -155.21533203 67.82568359 C-155.2237764 67.05984451 -155.23222076 66.29400543 -155.24092102 65.50495911 C-155.33766456 61.43997667 -155.79502867 58.22999248 -157.59765625 54.56640625 C-145.36278222 44.09479348 -130.23603882 41.16215957 -114.59765625 39.56640625 C-115.34789062 39.27507813 -116.098125 38.98375 -116.87109375 38.68359375 C-128.23466712 34.13243968 -138.71551518 29.12585049 -145.53515625 18.56640625 C-146.76996775 15.07987966 -146.67130986 12.24042143 -146.59765625 8.56640625 C-142.36598141 8.44144765 -138.13532452 8.35144148 -133.90234375 8.29174805 C-132.46693177 8.2668277 -131.03164368 8.2328775 -129.59667969 8.18920898 C-119.20689729 7.88128308 -111.51527825 8.8789041 -103.1171875 15.53125 C-97.63504636 21.86644743 -90.96132903 30.89917208 -90.41015625 39.48828125 C-90.47203125 40.1740625 -90.53390625 40.85984375 -90.59765625 41.56640625 C-89.54578125 41.48390625 -88.49390625 41.40140625 -87.41015625 41.31640625 C-73.09457587 41.36708087 -61.77677632 49.45332678 -51.59765625 58.56640625 C-51.58831055 57.74962402 -51.57896484 56.9328418 -51.56933594 56.09130859 C-51.51550118 52.37407119 -51.43187631 48.65807425 -51.34765625 44.94140625 C-51.33347656 43.65621094 -51.31929688 42.37101562 -51.3046875 41.046875 C-50.99600123 29.13158501 -50.99600123 29.13158501 -46.59765625 24.56640625 C-43.17506442 21.37537592 -39.80486377 19.59984583 -35.47265625 17.87890625 C-34.43882812 17.46253906 -33.405 17.04617187 -32.33984375 16.6171875 C-30.44194212 15.8899289 -28.52582691 15.2091298 -26.59765625 14.56640625 C-25.58849592 12.80048738 -25.58849592 12.80048738 -24.59765625 10.56640625 C-18.66399958 0.01768328 -11.13735694 -0.04392916 0 0 Z " fill="#D18D42" transform="translate(346.59765625,7.43359375)"/>
<path d="M0 0 C4.62339932 2.22608115 8.42010578 5.51564778 11 10 C14.1593727 19.46915354 13.89505464 30.37145595 14.5625 40.25 C14.75045023 42.97443384 14.94027892 45.69871013 15.13328552 48.42279053 C15.25228097 50.10766536 15.36822644 51.79275935 15.48060608 53.47808838 C15.77534297 57.70715101 16.21726004 61.82594407 17 66 C17.845625 66.21914062 18.69125 66.43828125 19.5625 66.6640625 C35.04463712 70.99202356 42.45214991 80.20848465 51.94360352 92.71801758 C55.30675664 97.14088956 58.78894192 101.45423442 62.3125 105.75 C67.47396754 112.05158754 72.46140075 118.46734448 77.37695312 124.9621582 C81.2750948 130.09914657 85.31005583 135.0827407 89.48828125 139.99609375 C91 142 91 142 91 144 C71.86 144 52.72 144 33 144 C33.0404382 163.99459817 33.09742452 183.98893205 33.18390274 203.98337936 C33.22354624 213.26919558 33.25601276 222.55492885 33.27099609 231.84082031 C33.28408937 239.94367229 33.31124705 248.04634062 33.35461307 256.1490891 C33.3770571 260.43105803 33.39292109 264.71280194 33.39188385 268.9948349 C33.39239549 292.16242617 33.94844842 313.63753771 44 335 C44.28858887 335.61681641 44.57717773 336.23363281 44.87451172 336.86914062 C50.93788482 349.60583133 59.25932475 361.7356327 70 371 C70.87398437 371.75410156 71.74796875 372.50820313 72.6484375 373.28515625 C93.30446068 390.39574262 118.36911475 399.07943152 145.00366211 399.20532227 C146.32282655 399.21535499 147.64199099 399.22538771 149.0011301 399.23572445 C152.55394945 399.26265034 156.10678102 399.28389172 159.65964508 399.30391693 C162.99939837 399.32361343 166.33911149 399.34848817 169.67883301 399.3729248 C179.43168709 399.44129288 189.1845977 399.5013966 198.9375 399.5625 C220.738125 399.706875 242.53875 399.85125 265 400 C265 315.52 265 231.04 265 144 C275.56 144 286.12 144 297 144 C297.22647056 174.30206865 297.40531429 204.60397953 297.51065329 234.9066996 C297.52315907 238.49118656 297.53610242 242.07567183 297.54931641 245.66015625 C297.55325106 246.73048212 297.55325106 246.73048212 297.55726521 247.82243073 C297.60067674 259.34817181 297.6794649 270.87340974 297.77152796 282.39885318 C297.86532917 294.24142898 297.92064762 306.08374285 297.94088495 317.92667484 C297.95332751 324.57195588 297.98429209 331.21632278 298.05730057 337.86129761 C298.12556754 344.1259291 298.14603782 350.38896251 298.13107681 356.65393066 C298.13381065 358.94358021 298.15347159 361.23328746 298.19205475 363.52261353 C298.43444257 378.65683373 296.39951618 388.02421788 287 400 C285.96844188 401.53823398 284.94739346 403.08379964 283.95288086 404.64624023 C283.12648444 405.86902315 282.29724209 407.08988866 281.46484375 408.30859375 C280.79045006 409.30319359 280.79045006 409.30319359 280.10243225 410.31788635 C279.17911785 411.67843339 278.25445395 413.0380657 277.32836914 414.39672852 C275.90382418 416.48691131 274.48384651 418.58014434 273.06445312 420.67382812 C272.15650387 422.01058913 271.24831073 423.34718454 270.33984375 424.68359375 C269.91702621 425.30632675 269.49420868 425.92905975 269.05857849 426.57066345 C266.11694865 430.88305135 266.11694865 430.88305135 265 432 C263.63837243 432.10976209 262.27116321 432.1512357 260.90518761 432.16494751 C260.01721438 432.17618904 259.12924115 432.18743057 258.21435964 432.19901276 C257.22753057 432.20633171 256.24070149 432.21365067 255.22396851 432.22119141 C254.18422461 432.23262932 253.14448072 432.24406723 252.07322943 432.25585175 C248.55975571 432.29286766 245.04626143 432.32233475 241.53271484 432.3515625 C239.02491536 432.37581727 236.51711815 432.400308 234.00932312 432.42501831 C211.06314494 432.64196094 188.11610166 432.76304665 165.16913414 432.85931396 C162.09485137 432.87244149 159.02056979 432.8858164 155.94628906 432.89941406 C155.18220122 432.90278322 154.41811339 432.90615237 153.63087137 432.90962362 C141.27971712 432.96569356 128.92969713 433.07768285 116.57916658 433.21142745 C103.89019449 433.34769024 91.20181014 433.42653353 78.51212656 433.45199776 C71.39070527 433.46785473 64.27142144 433.50925505 57.15073776 433.61651611 C50.44061918 433.71758804 43.73451961 433.74163833 37.02349281 433.7149086 C34.56886155 433.71742663 32.11409515 433.74539685 29.66010475 433.80154037 C18.27234303 434.04872419 7.85161223 434.12231796 -0.97349548 426.06529236 C-10.26756937 416.01666155 -8.98679934 403.07222362 -8.70288086 390.23657227 C-8.69864363 387.54450962 -8.70037719 384.85305985 -8.70951843 382.16107178 C-8.71733925 376.39149743 -8.67076492 370.62449059 -8.58595085 364.85556221 C-8.46341544 356.51539937 -8.42491729 348.17646279 -8.40613098 339.83549749 C-8.37339782 326.29970477 -8.27384195 312.76527719 -8.1315918 299.23022461 C-7.99365286 286.09162163 -7.88760287 272.95339102 -7.82397461 259.81420898 C-7.82003376 259.00270004 -7.8160929 258.1911911 -7.81203263 257.35509098 C-7.79245537 253.28350137 -7.77350016 249.21190915 -7.75485408 245.14031518 C-7.59965398 211.42587771 -7.33460185 177.71312981 -7 144 C-1.39 143.67 4.22 143.34 10 143 C7.89625 141.370625 5.7925 139.74125 3.625 138.0625 C-18.33651239 120.83316759 -18.33651239 120.83316759 -21 108 C-21.02645169 106.33354325 -21.03122677 104.66637411 -21 103 C-21.96550781 102.96261719 -22.93101563 102.92523438 -23.92578125 102.88671875 C-34.60845712 102.42324832 -45.27934129 101.6942079 -55.93954468 100.86758423 C-57.5157701 100.74796405 -59.09247158 100.63445301 -60.66958618 100.52719116 C-62.92330507 100.37233422 -65.17418751 100.19463548 -67.42578125 100.01171875 C-68.73973877 99.91334717 -70.05369629 99.81497559 -71.4074707 99.71362305 C-78.23494793 98.35740722 -81.97129902 94.29486415 -86 89 C-87.97449669 85.05100663 -87.43770498 80.30409896 -87 76 C-84.86353475 71.56881281 -82.62422478 68.7709797 -78 67 C-67.34626954 65.37125391 -56.87908482 69.51075595 -46.8125 72.5 C-44.98411266 73.03128745 -43.15533892 73.561247 -41.32617188 74.08984375 C-36.87950862 75.3779517 -32.43847115 76.68395464 -28 78 C-27.67 77.67 -27.34 77.34 -27 77 C-27.62003906 76.50113281 -28.24007812 76.00226563 -28.87890625 75.48828125 C-35.17415732 70.38427129 -41.32840114 65.14645452 -47.4296875 59.81323242 C-51.24104831 56.49144442 -55.10946734 53.27666958 -59.0625 50.125 C-69.96682074 41.18703218 -69.96682074 41.18703218 -71.0625 34.5 C-71.33043747 28.66491728 -69.36584125 24.66115828 -65.6875 20.1875 C-61.51297256 16.78962883 -57.94756867 15.76373917 -52.625 15.9375 C-39.83833499 17.8948597 -28.87687302 36.85113432 -21.24609375 46.24609375 C-17.2063948 51.19911594 -13.0992799 56.09626851 -9 61 C-10.75027304 53.60754243 -12.5791128 46.27491656 -14.82421875 39.015625 C-15.14124756 37.97986328 -15.45827637 36.94410156 -15.78491211 35.87695312 C-16.41358573 33.84000607 -17.05568586 31.80713927 -17.71313477 29.77929688 C-20.1554404 21.82234363 -21.99853099 13.21912098 -18.3125 5.4375 C-12.81868921 -0.35327353 -7.79638796 -1.02191241 0 0 Z " fill="#F5B662" transform="translate(95,72)"/>
<path d="M0 0 C4.23167484 -0.1249586 8.46233173 -0.21496477 12.6953125 -0.2746582 C14.13072448 -0.29957855 15.56601257 -0.33352875 17.00097656 -0.37719727 C27.39075896 -0.68512317 35.082378 0.31249785 43.48046875 6.96484375 C48.96260989 13.30004118 55.63632722 22.33276583 56.1875 30.921875 C56.0946875 31.95054688 56.0946875 31.95054688 56 33 C57.051875 32.9175 58.10375 32.835 59.1875 32.75 C69.39790811 32.78614304 78.78448479 37.29252161 87 43 C87.86367188 43.47050781 88.72734375 43.94101562 89.6171875 44.42578125 C92.69670154 46.43561985 94.19367133 47.75885706 96 51 C97.09754799 57.92870974 96.55220692 65.0374731 96 72 C93.55859375 72.78125 91.1171875 73.5625 88.67578125 74.34375 C84.71117053 76.79775722 82.70946359 79.6768577 81 84 C80.38914378 87.90357168 80.43331336 91.68354094 80.5625 95.625 C80.56830078 96.635625 80.57410156 97.64625 80.58007812 98.6875 C80.66427211 103.81996538 80.96284384 108.20572888 83 113 C84.1653125 112.9690625 85.330625 112.938125 86.53125 112.90625 C102.58422864 112.93446262 119.62946037 120.70257152 130.95703125 131.859375 C131.96830078 132.91898437 131.96830078 132.91898437 133 134 C133.58136719 134.56203125 134.16273438 135.1240625 134.76171875 135.703125 C143.36871886 144.63532663 144.6467491 155.02028174 144.53442383 166.90917969 C144.17673944 178.01271219 142.52321844 189.43034467 139 200 C89.83 200 40.66 200 -10 200 C-13.90734553 190.23163617 -15.49059162 179.48781966 -16 169 C-16.09667969 167.46085937 -16.09667969 167.46085937 -16.1953125 165.890625 C-16.52834687 156.61006719 -15.08103818 147.73823864 -9.94552612 139.84048462 C-7.56023194 135.69199753 -7.47888916 132.18325843 -7.60595703 127.48193359 C-7.61191391 126.65988937 -7.61787079 125.83784515 -7.62400818 124.9908905 C-7.64873888 122.29275673 -7.70267711 119.59610747 -7.7578125 116.8984375 C-7.78266361 115.01471856 -7.80598608 113.13097888 -7.82785034 111.2472229 C-7.8778292 107.30806188 -7.94142125 103.36944188 -8.015625 99.43066406 C-8.11026006 94.38587154 -8.17840817 89.34116587 -8.23733711 84.29584312 C-8.28436408 80.40952519 -8.34160067 76.52341343 -8.40230942 72.63728714 C-8.43086628 70.7770076 -8.45714223 68.91669157 -8.48108292 67.05634689 C-8.51682155 64.45704268 -8.56537791 61.85829445 -8.61767578 59.25927734 C-8.62612015 58.49343826 -8.63456451 57.72759918 -8.64326477 56.93855286 C-8.74000831 52.87357042 -9.19737242 49.66358623 -11 46 C1.23487403 35.52838723 16.36161743 32.59575332 32 31 C31.24976563 30.70867188 30.49953125 30.41734375 29.7265625 30.1171875 C18.36298913 25.56603343 7.88214107 20.55944424 1.0625 10 C-0.1723115 6.51347341 -0.07365361 3.67401518 0 0 Z " fill="#DA3744" transform="translate(200,16)"/>
<path d="M0 0 C1.30762802 -0.00619858 2.61525604 -0.01239716 3.96250916 -0.01878357 C6.72038492 -0.02915078 9.4777435 -0.02467859 12.2355957 -0.01000977 C15.75871837 0.00720203 19.28021365 -0.01636228 22.80315495 -0.05149937 C26.18136486 -0.07880993 29.55918491 -0.06873596 32.9375 -0.0625 C34.19699966 -0.07575821 35.45649933 -0.08901642 36.75416565 -0.10267639 C46.48807229 0.00086828 46.48807229 0.00086828 50.15795898 2.88305664 C53.75948876 7.18898656 54.40234375 11.04904152 54.40234375 16.56640625 C55.58207764 16.54284058 55.58207764 16.54284058 56.78564453 16.51879883 C60.36613713 16.4562471 63.94651451 16.41735074 67.52734375 16.37890625 C69.38359375 16.34120117 69.38359375 16.34120117 71.27734375 16.30273438 C72.47617187 16.29306641 73.675 16.28339844 74.91015625 16.2734375 C76.0098877 16.25772705 77.10961914 16.2420166 78.24267578 16.22583008 C83.34251514 16.7755346 86.52266146 18.70671674 90.15234375 22.25390625 C93.27109341 26.2893491 93.88135728 30.73819401 94.78515625 35.64453125 C96.14627822 42.12842135 99.22016805 46.18934232 104.58984375 50.19140625 C107.85718416 52.95049371 109.19349887 54.72690053 109.67700195 58.9855957 C109.70575346 61.9507629 109.7302788 64.91356089 109.71484375 67.87890625 C109.7106543 68.96107422 109.70646484 70.04324219 109.70214844 71.15820312 C109.56516837 80.92167628 108.16150879 89.70252277 105.34765625 99.08203125 C102.49730144 109.02706481 101.87276442 118.46336718 101.72998047 128.81152344 C101.57020037 138.64879518 100.66556171 147.63196227 96.58984375 156.69140625 C96.30286621 157.32957275 96.01588867 157.96773926 95.72021484 158.62524414 C82.41111334 187.55763666 82.41111334 187.55763666 78.40234375 191.56640625 C77.86154347 194.82484154 77.43628257 198.09323507 77 201.3671875 C76.47387689 204.18349358 75.84378708 206.12379307 74.40234375 208.56640625 C74.07234375 208.56640625 73.74234375 208.56640625 73.40234375 208.56640625 C73.56734375 207.39078125 73.73234375 206.21515625 73.90234375 205.00390625 C74.08288763 203.19273593 74.24723955 201.37993229 74.40234375 199.56640625 C74.51707031 198.35984375 74.63179688 197.15328125 74.75 195.91015625 C75.23427189 188.81506029 75.23427189 188.81506029 73.14453125 182.17578125 C71.06052962 179.95645484 68.90073827 178.30947219 66.40234375 176.56640625 C65.39171875 175.80328125 64.38109375 175.04015625 63.33984375 174.25390625 C48.34129758 163.32250617 30.77855476 155.80076933 13.14428711 150.29052734 C12.27296143 150.00258301 11.40163574 149.71463867 10.50390625 149.41796875 C9.34882568 149.05952881 9.34882568 149.05952881 8.17041016 148.69384766 C6.40234375 147.56640625 6.40234375 147.56640625 5.64599609 144.95068359 C5.52538818 143.77046631 5.52538818 143.77046631 5.40234375 142.56640625 C12.80197127 144.43138907 19.85256963 146.71107056 26.90234375 149.62890625 C27.84505127 150.01812256 28.78775879 150.40733887 29.7590332 150.80834961 C43.48706122 156.59020702 56.77290812 163.16698785 68.40234375 172.56640625 C69.05976563 173.09621094 69.7171875 173.62601563 70.39453125 174.171875 C71.74659959 175.28406025 73.07815837 176.42116484 74.40234375 177.56640625 C75.20887254 162.33197347 73.08802986 141.59493542 64.40234375 128.56640625 C62.46803358 127.54874609 62.46803358 127.54874609 60.18359375 126.8125 C59.3328125 126.51537109 58.48203125 126.21824219 57.60546875 125.91210938 C56.7134375 125.61240234 55.82140625 125.31269531 54.90234375 125.00390625 C54.04125 124.70033203 53.18015625 124.39675781 52.29296875 124.08398438 C44.3790696 121.36506243 36.46128719 119.50385268 28.08984375 119.00390625 C26.84203125 118.92785156 25.59421875 118.85179688 24.30859375 118.7734375 C20.22647161 118.57773156 16.14425388 118.48305841 12.05859375 118.390625 C10.06978916 118.33978706 8.08098462 118.28894541 6.0921936 118.23757935 C4.10490672 118.19175359 2.1172488 118.16307171 0.12963867 118.13452148 C-1.09650146 118.10430908 -2.3226416 118.07409668 -3.5859375 118.04296875 C-4.69493408 118.02314941 -5.80393066 118.00333008 -6.9465332 117.98291016 C-7.82140381 117.84546387 -8.69627441 117.70801758 -9.59765625 117.56640625 C-10.25765625 116.57640625 -10.91765625 115.58640625 -11.59765625 114.56640625 C-8.05962715 113.38706322 -4.81773836 113.36748514 -1.1328125 113.328125 C-0.39164185 113.31842178 0.34952881 113.30871857 1.11315918 113.29872131 C3.52210864 113.27369486 5.93077706 113.2611789 8.33984375 113.25390625 C9.15679718 113.25128784 9.97375061 113.24866943 10.81546021 113.24597168 C23.41328016 113.24163054 35.24531911 114.01029009 47.40234375 117.56640625 C48.07313965 117.75847656 48.74393555 117.95054688 49.43505859 118.1484375 C52.33199727 118.98900002 55.20546344 119.87593211 58.06640625 120.83203125 C60.31222382 121.6663761 60.31222382 121.6663761 62.40234375 121.56640625 C62.05453857 120.79562744 62.05453857 120.79562744 61.69970703 120.00927734 C60.63925381 117.65465781 59.58327034 115.29805901 58.52734375 112.94140625 C57.98013672 111.72904297 57.98013672 111.72904297 57.421875 110.4921875 C55.87718344 107.03769546 54.45470106 103.74620694 53.39453125 100.10546875 C52.65851617 97.50824149 52.65851617 97.50824149 50.73828125 96.453125 C49.96742188 96.16050781 49.1965625 95.86789063 48.40234375 95.56640625 C47.30148437 94.93347656 46.200625 94.30054687 45.06640625 93.6484375 C23.34861612 81.30151717 0.95456085 77.71923475 -23.59765625 75.56640625 C-23.59765625 74.24640625 -23.59765625 72.92640625 -23.59765625 71.56640625 C-0.49379288 70.64634089 20.59885589 76.65205931 41.47265625 86.24609375 C44.01871688 87.63488459 44.01871688 87.63488459 45.40234375 87.56640625 C33.14549181 66.30262524 18.36445598 47.15285028 2.40234375 28.56640625 C1.9640625 29.00210938 1.52578125 29.4378125 1.07421875 29.88671875 C-2.94053575 33.65667115 -6.69207592 36.22697276 -11.72265625 38.50390625 C-18.31559478 41.62556275 -21.77947459 45.33278645 -24.63964844 51.99267578 C-25.97240436 56.96435804 -25.95481748 61.74387765 -26.01171875 66.87109375 C-26.0310849 67.95021027 -26.05045105 69.02932678 -26.07040405 70.1411438 C-26.12999567 73.5744852 -26.17650386 77.00786049 -26.22265625 80.44140625 C-26.26085478 82.77475389 -26.2999076 85.10808771 -26.33984375 87.44140625 C-26.43568042 93.14961657 -26.52078737 98.85791069 -26.59765625 104.56640625 C-28.21133058 104.26476864 -29.82392463 103.95734762 -31.43603516 103.64746094 C-32.78322128 103.3915921 -32.78322128 103.3915921 -34.15762329 103.1305542 C-39.77686085 101.83135808 -43.44467484 97.9924622 -46.97265625 93.62890625 C-50.84068275 86.33916399 -50.91724582 79.61179123 -50.93359375 71.5 C-50.94025055 70.34774429 -50.94690735 69.19548859 -50.95376587 68.00831604 C-50.9638611 65.58018586 -50.96858386 63.1520281 -50.96826172 60.72387695 C-50.97264584 57.01272071 -51.00903076 53.30274388 -51.046875 49.59179688 C-51.0527416 47.22786864 -51.05671204 44.86393477 -51.05859375 42.5 C-51.07296478 41.39361679 -51.08733582 40.28723358 -51.10214233 39.14732361 C-51.06545326 32.95788859 -50.7590381 29.26378176 -46.59765625 24.56640625 C-43.17506442 21.37537592 -39.80486377 19.59984583 -35.47265625 17.87890625 C-34.43882812 17.46253906 -33.405 17.04617187 -32.33984375 16.6171875 C-30.44194212 15.8899289 -28.52582691 15.2091298 -26.59765625 14.56640625 C-25.58849592 12.80048738 -25.58849592 12.80048738 -24.59765625 10.56640625 C-18.66399958 0.01768328 -11.13735694 -0.04392916 0 0 Z " fill="#9EC63D" transform="translate(346.59765625,7.43359375)"/>
<path d="M0 0 C4.42660705 3.46880319 7.86446909 7.02579347 11.25 11.5 C11.72397217 12.11673584 12.19794434 12.73347168 12.6862793 13.36889648 C13.66156375 14.6384716 14.63447783 15.90987125 15.60498047 17.18310547 C16.86562115 18.82498295 18.15205319 20.4469788 19.44140625 22.06640625 C24.72867776 28.74735723 29.57419016 35.66882139 34.3125 42.75 C34.89942627 43.625354 35.48635254 44.50070801 36.09106445 45.40258789 C39.66561788 50.80040347 42.95103179 56.28871123 46 62 C42.96932872 60.82274721 39.99016645 59.55849258 37.0234375 58.23046875 C16.95578707 49.34678298 -2.98930117 44.4520158 -25 45 C-25 45.66 -25 46.32 -25 47 C-23.89881836 47.10489746 -23.89881836 47.10489746 -22.77539062 47.21191406 C2.56686535 49.67949127 29.38048503 53.36790444 50.09765625 69.6484375 C53.01009229 73.24861512 54.76788579 77.30657588 56.6875 81.5 C57.29174805 82.78197266 57.29174805 82.78197266 57.90820312 84.08984375 C59.59205047 87.70574375 61.13949714 91.09093751 62 95 C55.29897217 93.5892573 48.72833753 91.85638549 42.13671875 90 C31.31584692 87.27589274 20.92244325 86.70805754 9.82373047 86.79418945 C7.34462442 86.81272714 4.86588767 86.81469661 2.38671875 86.81445312 C0.80728842 86.81935968 -0.77213939 86.82518419 -2.3515625 86.83203125 C-3.46079575 86.83370049 -3.46079575 86.83370049 -4.59243774 86.83540344 C-8.42311837 86.80624334 -8.42311837 86.80624334 -12 88 C-10.20783438 89.79216562 -7.51032544 89.2153375 -5.0859375 89.28125 C-3.85705811 89.31774658 -2.62817871 89.35424316 -1.36206055 89.3918457 C-0.04633057 89.42753662 1.26939941 89.46322754 2.625 89.5 C5.29829099 89.58397158 7.97138495 89.67317579 10.64453125 89.76171875 C15.61386542 89.92395056 15.61386542 89.92395056 20.58349609 90.07666016 C30.50032 90.39478583 39.53563641 92.18620702 49 95 C49.9907251 95.28665527 49.9907251 95.28665527 51.00146484 95.57910156 C62.06053652 98.84798088 62.06053652 98.84798088 65.26171875 102.7734375 C72.72888637 116.63384301 74.74145583 135.45688882 74 151 C73.53851563 150.64808594 73.07703125 150.29617187 72.6015625 149.93359375 C63.96177309 143.3939903 55.30481159 137.27881735 45.6875 132.25 C44.72706787 131.74629883 43.76663574 131.24259766 42.77709961 130.72363281 C30.3074089 124.38160522 17.15799477 119.69319061 4 115 C4.18419036 116.96180209 4.18419036 116.96180209 5 119 C6.79820035 120.11420118 6.79820035 120.11420118 9.1015625 120.75390625 C9.97312988 121.04523438 10.84469727 121.3365625 11.74267578 121.63671875 C13.16942627 122.09498047 13.16942627 122.09498047 14.625 122.5625 C36.98461924 130.22318325 57.16235571 140.16235571 74 157 C74.265625 160.16015625 74.265625 160.16015625 74.25 164.0625 C74.25773437 165.96708984 74.25773437 165.96708984 74.265625 167.91015625 C74 172 74 172 72 181 C45.27 181 18.54 181 -9 181 C-7 169 -7 169 -5.875 163.6875 C-3.71207729 150.37585372 -2.19300122 133.64680471 -10 122 C-12.74267316 118.35017576 -15.68981114 115.14057588 -19 112 C-19.66644531 111.36320312 -20.33289063 110.72640625 -21.01953125 110.0703125 C-31.86107944 100.74202056 -47.52943595 95.53323384 -61.625 94.6875 C-65 94 -65 94 -66.6796875 91.66796875 C-68.50375863 86.60050488 -68.51363932 81.97161178 -68.5 76.625 C-68.52835937 75.62210937 -68.55671875 74.61921875 -68.5859375 73.5859375 C-68.60350412 66.87548775 -67.56437434 62.08161272 -63 57 C-59.42040746 54.17159289 -56.65684042 53 -52 53 C-51.76925781 53.79664063 -51.53851563 54.59328125 -51.30078125 55.4140625 C-48.82121725 63.47019535 -46.85623842 69.13065289 -39.125 73.25 C-35.54615763 74.95706289 -31.80915805 75.92685735 -28 77 C-28.00888245 76.40610977 -28.01776489 75.81221954 -28.0269165 75.20033264 C-28.11580847 68.9867623 -28.17590703 62.7733743 -28.21972656 56.55932617 C-28.23977 54.24414729 -28.26701225 51.92901858 -28.30175781 49.61401367 C-28.35059542 46.27510149 -28.37304225 42.93686201 -28.390625 39.59765625 C-28.41127014 38.57229263 -28.43191528 37.54692902 -28.45318604 36.49049377 C-28.45566324 28.45241643 -26.5593309 22.16092359 -21.72265625 15.69140625 C-18.54096156 12.54623029 -15.44629644 10.82561553 -11.4375 8.9375 C-6.47790069 6.58617482 -3.18700023 4.67913265 0 0 Z " fill="#4D6E15" transform="translate(348,35)"/>
<path d="M0 0 C10.56 0 21.12 0 32 0 C32 10.56 32 21.12 32 32 C36.62 32 41.24 32 46 32 C51.23031681 34.2544469 53.80989312 37.83512219 56 43 C56.56151612 45.86166101 56.61451559 48.65143323 56.62524414 51.56225586 C56.65279785 52.80272423 56.65279785 52.80272423 56.6809082 54.06825256 C56.7355919 56.78385787 56.76160464 59.49880283 56.78515625 62.21484375 C56.81286525 64.11382975 56.84156229 66.01280156 56.87120056 67.91175842 C56.92845697 71.88506694 56.97100131 75.85820306 57.00366211 79.83178711 C57.04697646 84.91085181 57.13105455 89.98829727 57.22675419 95.06661129 C57.29536343 98.98623668 57.34009477 102.905867 57.3779583 106.82589912 C57.39928234 108.69779553 57.42842966 110.56962051 57.46571541 112.44126701 C57.51480035 115.06405655 57.53108231 117.68515484 57.53930664 120.30834961 C57.56034958 121.0727536 57.58139252 121.83715759 57.60307312 122.62472534 C57.5724483 127.8578968 56.19757535 131.01874348 53.18656063 135.2889185 C44.93611165 147.1864906 49.00496048 165.86082075 51.38916016 179.17285156 C52.19940525 183.46147982 53.08046979 187.73337982 54 192 C50.79745395 191.73187987 49.85650091 190.85420859 47.5546875 188.515625 C46.65119726 187.43558487 45.75858646 186.34638327 44.875 185.25 C44.39272949 184.66581299 43.91045898 184.08162598 43.41357422 183.47973633 C39.81322411 179.0880163 36.33812576 174.6034936 32.9050293 170.08007812 C29.59185114 165.72535712 26.15694857 161.48087139 22.6875 157.25 C18.08146749 151.63243861 13.62904018 145.92090181 9.25 140.125 C-2.61970093 124.23073534 -2.61970093 124.23073534 -20.16577148 115.94140625 C-21.43106689 115.63074219 -22.6963623 115.32007813 -24 115 C-24.09278723 105.58567289 -24.16380901 96.17150382 -24.20724869 86.75681877 C-24.22810038 82.38491509 -24.25637342 78.01332486 -24.30175781 73.64160156 C-24.34530247 69.42055313 -24.3691553 65.19980571 -24.37950897 60.97854996 C-24.38688494 59.37021269 -24.40128867 57.76189141 -24.42292023 56.15368271 C-24.45207012 53.89620453 -24.45595137 51.63996111 -24.45410156 49.38232422 C-24.46298401 48.09881073 -24.47186646 46.81529724 -24.48101807 45.4928894 C-23.76397173 40.28609217 -21.26973006 37.26973006 -17.625 33.625 C-14 32 -14 32 0 32 C0 21.44 0 10.88 0 0 Z " fill="#02A3EB" transform="translate(136,24)"/>
<path d="M0 0 C10.56 0 21.12 0 32 0 C32.22647056 30.30206865 32.40531429 60.60397953 32.51065329 90.9066996 C32.52315907 94.49118656 32.53610242 98.07567183 32.54931641 101.66015625 C32.55193951 102.37370683 32.55456261 103.08725741 32.55726521 103.82243073 C32.60067674 115.34817181 32.6794649 126.87340974 32.77152796 138.39885318 C32.86532917 150.24142898 32.92064762 162.08374285 32.94088495 173.92667484 C32.95332751 180.57195588 32.98429209 187.21632278 33.05730057 193.86129761 C33.12556754 200.1259291 33.14603782 206.38896251 33.13107681 212.65393066 C33.13381065 214.94358021 33.15347159 217.23328746 33.19205475 219.52261353 C33.43447673 234.65896665 31.39713903 244.02129074 22 256 C20.96797579 257.54324813 19.94678965 259.09404239 18.95288086 260.66210938 C18.12647812 261.89130663 17.29723556 263.11860052 16.46484375 264.34375 C16.01524796 265.00918823 15.56565216 265.67462646 15.10243225 266.36022949 C14.17916041 267.72499862 13.25449736 269.08882774 12.32836914 270.45166016 C10.90230517 272.55183159 9.48323212 274.65662082 8.06445312 276.76171875 C7.15665607 278.10183766 6.24846903 279.4416925 5.33984375 280.78125 C4.91702621 281.40914429 4.49420868 282.03703857 4.05857849 282.68395996 C3.06502077 284.14069495 2.03626912 285.57333252 1 287 C0.67 287 0.34 287 0 287 C0 192.29 0 97.58 0 0 Z " fill="#E4A95B" transform="translate(360,216)"/>
<path d="M0 0 C0.73437453 25.52233934 -0.24191026 57.86286539 -15 80 C-7.41 80 0.18 80 8 80 C4.86462503 101.94762478 -9.09300659 123.95082398 -26.26171875 137.828125 C-40.92321287 148.68849102 -56.09118368 152.66057109 -74 152 C-73.92376563 137.62982136 -68.63935447 127.75976653 -61.46386719 115.55615234 C-54.391548 103.20672241 -49.03745342 90.60375359 -48.89453125 76.25390625 C-48.74354599 61.25002806 -46.79874881 48.00503379 -42.69287109 33.60009766 C-41.71045494 29.91344084 -41.07367724 26.19586139 -40.4375 22.4375 C-39.08483352 15.5511979 -37.44735264 11.6120086 -31.83984375 7.36328125 C-21.71370296 0.7355536 -11.90725524 -0.51112224 0 0 Z " fill="#346C2E" transform="translate(496,64)"/>
<path d="M0 0 C4.62311461 2.22594407 8.42066211 5.51553964 11 10 C13.87668949 18.65347523 13.79822904 28.48681707 14.43261719 37.51464844 C14.62554042 40.25768378 14.82761208 42.99992871 15.03125 45.7421875 C15.15938391 47.49996146 15.28700605 49.25777283 15.4140625 51.015625 C15.50308334 52.23454437 15.50308334 52.23454437 15.59390259 53.47808838 C15.88592808 57.66234246 16.06304359 61.80213722 16 66 C15.03320312 66.14695312 14.06640625 66.29390625 13.0703125 66.4453125 C2.36437641 68.22573076 -6.83495656 71.14487317 -13.7578125 80.1015625 C-18.44640534 87.26714779 -19.91792834 94.58546903 -21 103 C-32.66070558 102.54851741 -44.30571918 101.76970543 -55.93954468 100.86758423 C-57.5157701 100.74796405 -59.09247158 100.63445301 -60.66958618 100.52719116 C-62.92330507 100.37233422 -65.17418751 100.19463548 -67.42578125 100.01171875 C-68.73973877 99.91334717 -70.05369629 99.81497559 -71.4074707 99.71362305 C-78.23494793 98.35740722 -81.97129902 94.29486415 -86 89 C-87.97449669 85.05100663 -87.43770498 80.30409896 -87 76 C-84.86353475 71.56881281 -82.62422478 68.7709797 -78 67 C-67.34626954 65.37125391 -56.87908482 69.51075595 -46.8125 72.5 C-44.98411266 73.03128745 -43.15533892 73.561247 -41.32617188 74.08984375 C-36.87950862 75.3779517 -32.43847115 76.68395464 -28 78 C-27.67 77.67 -27.34 77.34 -27 77 C-27.62003906 76.50113281 -28.24007812 76.00226563 -28.87890625 75.48828125 C-35.17415732 70.38427129 -41.32840114 65.14645452 -47.4296875 59.81323242 C-51.24104831 56.49144442 -55.10946734 53.27666958 -59.0625 50.125 C-69.96682074 41.18703218 -69.96682074 41.18703218 -71.0625 34.5 C-71.33043747 28.66491728 -69.36584125 24.66115828 -65.6875 20.1875 C-61.51297256 16.78962883 -57.94756867 15.76373917 -52.625 15.9375 C-39.83833499 17.8948597 -28.87687302 36.85113432 -21.24609375 46.24609375 C-17.2063948 51.19911594 -13.0992799 56.09626851 -9 61 C-10.75027304 53.60754243 -12.5791128 46.27491656 -14.82421875 39.015625 C-15.14124756 37.97986328 -15.45827637 36.94410156 -15.78491211 35.87695312 C-16.41358573 33.84000607 -17.05568586 31.80713927 -17.71313477 29.77929688 C-20.1554404 21.82234363 -21.99853099 13.21912098 -18.3125 5.4375 C-12.81868921 -0.35327353 -7.79638796 -1.02191241 0 0 Z " fill="#638D19" transform="translate(95,72)"/>
<path d="M0 0 C6.86783552 5.76382021 12.2390059 12.92384821 17.63110352 20.03051758 C20.99425664 24.45338956 24.47644192 28.76673442 28 33.0625 C33.16146754 39.36408754 38.14890075 45.77984448 43.06445312 52.2746582 C46.9625948 57.41164657 50.99755583 62.3952407 55.17578125 67.30859375 C56.6875 69.3125 56.6875 69.3125 56.6875 71.3125 C46.53396956 71.61570334 36.38154067 71.84568023 26.22438049 71.98605824 C21.50601668 72.05348849 16.79078168 72.14468809 12.07421875 72.29321289 C-24.28733268 73.40897721 -24.28733268 73.40897721 -33.5859375 64.99609375 C-35.20169286 63.33282713 -36.67843551 61.6536533 -38.09838867 59.82144165 C-39.78524806 57.72495154 -41.79681734 56.17547832 -43.9375 54.5625 C-50.53560013 48.66508307 -54.83258036 41.45547139 -55.52734375 32.5625 C-55.87282709 21.72814246 -53.44014827 12.64612781 -46.3125 4.3125 C-33.20061583 -7.98735491 -15.30599545 -10.83797311 0 0 Z " fill="#FE9A00" transform="translate(129.3125,144.6875)"/>
<path d="M0 0 C1.46156415 0.02009023 2.92315486 0.03833656 4.38476562 0.0546875 C7.94456774 0.09849664 11.50336254 0.16738454 15.0625 0.25 C14.0725 0.91 13.0825 1.57 12.0625 2.25 C6.34004309 6.4371636 4.82197408 9.96933535 3.375 16.875 C2.68425427 22.05593437 2.68425427 22.05593437 4.484375 26.79296875 C6.44707567 28.87386125 8.49256435 30.82293607 10.58837891 32.76806641 C13.47471215 35.66969655 15.85937137 38.98260688 18.3125 42.25 C18.86083496 42.97477539 19.40916992 43.69955078 19.97412109 44.44628906 C21.67860511 46.70807468 23.37246796 48.97739884 25.0625 51.25 C25.62050293 51.99910645 26.17850586 52.74821289 26.75341797 53.52001953 C34.37655186 63.7971826 41.45068273 74.29497997 48.0625 85.25 C48.16046875 83.991875 48.2584375 82.73375 48.359375 81.4375 C51.59813956 43.0473943 51.59813956 43.0473943 64.0625 32.25 C65.5475 32.745 65.5475 32.745 67.0625 33.25 C66.46269224 36.2622214 65.53467626 38.20663424 63.75 40.6875 C57.53942022 50.40607298 55.43101059 62.93217734 54.0625 74.25 C53.91312988 75.48218262 53.91312988 75.48218262 53.76074219 76.73925781 C52.28312984 91.1123961 55.40223625 100.7292053 62.08984375 113.34765625 C65.25542942 119.38957081 67.51543008 125.58612036 69.625 132.0625 C70.10743164 133.52018799 70.10743164 133.52018799 70.59960938 135.00732422 C73.73054872 144.78728324 75.3731277 153.94849639 75.36328125 164.2265625 C75.36756638 165.23665375 75.3718515 166.246745 75.37626648 167.28744507 C75.38197053 169.40679174 75.38253929 171.52615797 75.37817383 173.64550781 C75.37500159 176.87338666 75.39856521 180.10035823 75.42382812 183.328125 C75.42610042 185.39843636 75.42680494 187.46875015 75.42578125 189.5390625 C75.434991 190.4944693 75.44420074 191.4498761 75.45368958 192.43423462 C75.41282551 198.39179928 74.48219928 202.79477977 72.0625 208.25 C71.7325 208.25 71.4025 208.25 71.0625 208.25 C71.2275 207.074375 71.3925 205.89875 71.5625 204.6875 C71.74304388 202.87632968 71.9073958 201.06352604 72.0625 199.25 C72.17722656 198.0434375 72.29195313 196.836875 72.41015625 195.59375 C72.89442814 188.49865404 72.89442814 188.49865404 70.8046875 181.859375 C68.72068587 179.64004859 66.56089452 177.99306594 64.0625 176.25 C63.051875 175.486875 62.04125 174.72375 61 173.9375 C46.00145383 163.00609992 28.43871101 155.48436308 10.80444336 149.97412109 C9.93311768 149.68617676 9.06179199 149.39823242 8.1640625 149.1015625 C7.00898193 148.74312256 7.00898193 148.74312256 5.83056641 148.37744141 C4.0625 147.25 4.0625 147.25 3.30615234 144.63427734 C3.18554443 143.45406006 3.18554443 143.45406006 3.0625 142.25 C10.46212752 144.11498282 17.51272588 146.39466431 24.5625 149.3125 C25.50520752 149.70171631 26.44791504 150.09093262 27.41918945 150.49194336 C41.14721747 156.27380077 54.43306437 162.8505816 66.0625 172.25 C66.71992188 172.77980469 67.37734375 173.30960938 68.0546875 173.85546875 C69.40675584 174.967654 70.73831462 176.10475859 72.0625 177.25 C72.86902879 162.01556722 70.74818611 141.27852917 62.0625 128.25 C60.12818983 127.23233984 60.12818983 127.23233984 57.84375 126.49609375 C56.99296875 126.19896484 56.1421875 125.90183594 55.265625 125.59570312 C54.37359375 125.29599609 53.4815625 124.99628906 52.5625 124.6875 C51.70140625 124.38392578 50.8403125 124.08035156 49.953125 123.76757812 C42.03922585 121.04865618 34.12144344 119.18744643 25.75 118.6875 C24.5021875 118.61144531 23.254375 118.53539063 21.96875 118.45703125 C17.88662786 118.26132531 13.80441013 118.16665216 9.71875 118.07421875 C7.72994541 118.02338081 5.74114087 117.97253916 3.75234985 117.9211731 C1.76506297 117.87534734 -0.22259495 117.84666546 -2.21020508 117.81811523 C-3.43634521 117.78790283 -4.66248535 117.75769043 -5.92578125 117.7265625 C-7.03477783 117.70674316 -8.14377441 117.68692383 -9.28637695 117.66650391 C-10.16124756 117.52905762 -11.03611816 117.39161133 -11.9375 117.25 C-12.5975 116.26 -13.2575 115.27 -13.9375 114.25 C-10.3994709 113.07065697 -7.15758211 113.05107889 -3.47265625 113.01171875 C-2.7314856 113.00201553 -1.99031494 112.99231232 -1.22668457 112.98231506 C1.18226489 112.95728861 3.59093331 112.94477265 6 112.9375 C6.81695343 112.93488159 7.63390686 112.93226318 8.47561646 112.92956543 C21.07343641 112.92522429 32.90547536 113.69388384 45.0625 117.25 C45.7332959 117.44207031 46.4040918 117.63414063 47.09521484 117.83203125 C49.99215352 118.67259377 52.86561969 119.55952586 55.7265625 120.515625 C57.97238007 121.34996985 57.97238007 121.34996985 60.0625 121.25 C59.71469482 120.47922119 59.71469482 120.47922119 59.35986328 119.69287109 C58.29941006 117.33825156 57.24342659 114.98165276 56.1875 112.625 C55.64029297 111.41263672 55.64029297 111.41263672 55.08203125 110.17578125 C53.53733969 106.72128921 52.11485731 103.42980069 51.0546875 99.7890625 C50.31867242 97.19183524 50.31867242 97.19183524 48.3984375 96.13671875 C47.62757813 95.84410156 46.85671875 95.55148438 46.0625 95.25 C44.96164062 94.61707031 43.86078125 93.98414062 42.7265625 93.33203125 C21.00877237 80.98511092 -1.3852829 77.4028285 -25.9375 75.25 C-25.9375 73.93 -25.9375 72.61 -25.9375 71.25 C-2.83363663 70.32993464 18.25901214 76.33565306 39.1328125 85.9296875 C41.67887313 87.31847834 41.67887313 87.31847834 43.0625 87.25 C30.80564806 65.98621899 16.02461223 46.83644403 0.0625 28.25 C-0.37578125 28.68570313 -0.8140625 29.12140625 -1.265625 29.5703125 C-5.2803795 33.3402649 -9.03191967 35.91056651 -14.0625 38.1875 C-20.65543853 41.3091565 -24.11931834 45.0163802 -26.97949219 51.67626953 C-28.31224811 56.64795179 -28.29466123 61.4274714 -28.3515625 66.5546875 C-28.37092865 67.63380402 -28.3902948 68.71292053 -28.4102478 69.82473755 C-28.46983942 73.25807895 -28.51634761 76.69145424 -28.5625 80.125 C-28.60069853 82.45834764 -28.63975135 84.79168146 -28.6796875 87.125 C-28.77552417 92.83321032 -28.86063112 98.54150444 -28.9375 104.25 C-30.55117433 103.94836239 -32.16376838 103.64094137 -33.77587891 103.33105469 C-35.12306503 103.07518585 -35.12306503 103.07518585 -36.49746704 102.81414795 C-42.1167046 101.51495183 -45.78451859 97.67605595 -49.3125 93.3125 C-53.1805265 86.02275774 -53.25708957 79.29538498 -53.2734375 71.18359375 C-53.2800943 70.03133804 -53.2867511 68.87908234 -53.29360962 67.69190979 C-53.30370485 65.26377961 -53.30842761 62.83562185 -53.30810547 60.4074707 C-53.31248959 56.69631446 -53.34887451 52.98633763 -53.38671875 49.27539062 C-53.39258535 46.91146239 -53.39655579 44.54752852 -53.3984375 42.18359375 C-53.41280853 41.07721054 -53.42717957 39.97082733 -53.44198608 38.83091736 C-53.40529701 32.64148234 -53.09888185 28.94737551 -48.9375 24.25 C-45.51490817 21.05896967 -42.14470752 19.28343958 -37.8125 17.5625 C-36.77867187 17.14613281 -35.74484375 16.72976562 -34.6796875 16.30078125 C-32.78178587 15.57352265 -30.86567066 14.89272355 -28.9375 14.25 C-27.92833967 12.48408113 -27.92833967 12.48408113 -26.9375 10.25 C-20.53826 -1.12642666 -11.70323385 -0.27981116 0 0 Z " fill="#9EC63D" transform="translate(348.9375,7.75)"/>
<path d="M0 0 C-2.40077204 1.6005147 -4.69531084 2.87889174 -7.25 4.1875 C-16.16020822 9.16333056 -21.50878452 16.17726604 -24.61328125 25.92578125 C-26.34134314 35.19447682 -25.27948449 44.6016551 -21 53 C-15.24260509 61.09881091 -8.40366154 67.19256595 1.35505676 69.56549072 C7.26074224 70.53567227 13.29809006 70.32982893 19.26953125 70.3359375 C20.75632348 70.34237785 22.24311449 70.34910709 23.72990417 70.35610962 C26.83729995 70.36803781 29.94458493 70.37179507 33.05200195 70.37060547 C37.00588338 70.37040253 40.95904403 70.39769769 44.91275501 70.43214989 C47.98169628 70.4545436 51.05046749 70.45843923 54.11948204 70.45738602 C55.57573618 70.45972353 57.03199636 70.46844095 58.48816872 70.48405075 C70.63325477 70.60206206 81.6161536 68.99351091 90.7734375 60.3203125 C94.85783493 56.02911013 97.21316856 51.87389206 99.17578125 46.296875 C99.96774474 44.0898867 100.93464679 42.08518553 102 40 C102.56984542 55.96224702 102.09947915 71.70156254 97 87 C47.83 87 -1.34 87 -52 87 C-55.90734553 77.23163617 -57.49059162 66.48781966 -58 56 C-58.09667969 54.46085937 -58.09667969 54.46085937 -58.1953125 52.890625 C-58.59589928 41.7276067 -56.38532644 31.66146434 -48.9765625 23.0546875 C-36.47501862 10.05901145 -18.65727372 -0.54874334 0 0 Z " fill="#AD313B" transform="translate(242,129)"/>
<path d="M0 0 C4.42660705 3.46880319 7.86446909 7.02579347 11.25 11.5 C11.72397217 12.11673584 12.19794434 12.73347168 12.6862793 13.36889648 C13.66156375 14.6384716 14.63447783 15.90987125 15.60498047 17.18310547 C16.86562115 18.82498295 18.15205319 20.4469788 19.44140625 22.06640625 C24.72867776 28.74735723 29.57419016 35.66882139 34.3125 42.75 C34.89942627 43.625354 35.48635254 44.50070801 36.09106445 45.40258789 C39.66561788 50.80040347 42.95103179 56.28871123 46 62 C42.96932872 60.82274721 39.99016645 59.55849258 37.0234375 58.23046875 C16.95578707 49.34678298 -2.98930117 44.4520158 -25 45 C-25 45.66 -25 46.32 -25 47 C-24.26587891 47.06993164 -23.53175781 47.13986328 -22.77539062 47.21191406 C2.56686535 49.67949127 29.38048503 53.36790444 50.09765625 69.6484375 C53.01009229 73.24861512 54.76788579 77.30657588 56.6875 81.5 C57.29174805 82.78197266 57.29174805 82.78197266 57.90820312 84.08984375 C59.59205047 87.70574375 61.13949714 91.09093751 62 95 C55.29897217 93.5892573 48.72833753 91.85638549 42.13671875 90 C31.35259448 87.28446659 20.99459349 86.70791545 9.93359375 86.79418945 C7.47645886 86.81267713 5.01969788 86.81469689 2.5625 86.81445312 C0.98958008 86.81936175 -0.58333731 86.82518719 -2.15625 86.83203125 C-2.88541626 86.83314407 -3.61458252 86.8342569 -4.36584473 86.83540344 C-7.11763789 86.86115628 -9.62819044 86.89627698 -12.2902832 87.63891602 C-14 88 -14 88 -17.19921875 85.9453125 C-18.3722456 85.01805005 -19.53473765 84.07733744 -20.6875 83.125 C-21.28111328 82.65191406 -21.87472656 82.17882812 -22.48632812 81.69140625 C-26.60705357 78.39294643 -26.60705357 78.39294643 -28 77 C-28.11393883 75.51360923 -28.15955572 74.02189926 -28.17700195 72.53125 C-28.18983719 71.57935791 -28.20267242 70.62746582 -28.21589661 69.64672852 C-28.22328354 68.60830811 -28.23067047 67.5698877 -28.23828125 66.5 C-28.246353 65.43515381 -28.25442474 64.37030762 -28.26274109 63.27319336 C-28.27660722 61.01010782 -28.28731799 58.74700113 -28.29516602 56.48388672 C-28.31228989 53.04222986 -28.35614335 49.60155569 -28.40039062 46.16015625 C-28.41052501 43.96094456 -28.41903877 41.7617247 -28.42578125 39.5625 C-28.44328934 38.54027344 -28.46079742 37.51804688 -28.47883606 36.46484375 C-28.45483267 28.44795885 -26.54793293 22.14436121 -21.72265625 15.69140625 C-18.54096156 12.54623029 -15.44629644 10.82561553 -11.4375 8.9375 C-6.47790069 6.58617482 -3.18700023 4.67913265 0 0 Z " fill="#80A100" transform="translate(348,35)"/>
<path d="M0 0 C18.99782022 -0.47391525 41.58247108 1.68807107 56.484375 14.6328125 C59.79532012 18.1802537 60.7890625 21.36970007 60.7890625 26.16015625 C58.69703396 32.56699366 54.14300484 36.16857259 48.51953125 39.5078125 C37.18152648 45.20293932 23.4112052 47.73819508 10.7890625 48.16015625 C9.7165625 48.20011719 8.6440625 48.24007812 7.5390625 48.28125 C-10.74533163 48.62816373 -31.57552506 46.17355108 -46.39453125 34.4296875 C-49.10131856 31.59307825 -50.55293075 28.9468296 -51.3359375 25.09765625 C-51.18366664 20.3011241 -50.39017273 18.72710309 -47.2109375 15.16015625 C-34.70706059 3.43589756 -16.47060012 0.82152628 0 0 Z " fill="#88AB00" transform="translate(219.2109375,279.83984375)"/>
<path d="M0 0 C10.56 0 21.12 0 32 0 C32 10.56 32 21.12 32 32 C36.62 32 41.24 32 46 32 C50.5751522 33.97204836 52.76010456 36.50462672 55.17529297 40.84008789 C56.79214401 45.07462938 56.40875968 49.47085752 56.25 53.9375 C56.23195313 54.90751953 56.21390625 55.87753906 56.1953125 56.87695312 C56.14850667 59.25234894 56.08296385 61.62563844 56 64 C53.36 64 50.72 64 48 64 C48.01571045 65.00377686 48.0314209 66.00755371 48.04760742 67.04174805 C48.10205114 70.77831955 48.13640226 74.51485621 48.16479492 78.25170898 C48.17984876 79.86667789 48.20029648 81.48160613 48.22631836 83.09643555 C48.26285286 85.42246555 48.27976015 87.74795341 48.29296875 90.07421875 C48.30845261 90.79212082 48.32393646 91.51002289 48.33988953 92.24967957 C48.34136511 96.67999919 47.73905727 99.48259257 45 103 C42.37121839 104.12276504 39.83903809 104.20605922 37 104 C33.73288174 102.32455474 33.172189 101.51656699 32 98 C31.9151907 95.41395463 31.88394132 92.85499997 31.90234375 90.26953125 C31.90335083 89.60417358 31.90435791 88.93881592 31.90539551 88.2532959 C31.91061894 85.77301301 31.92458022 83.29275474 31.9375 80.8125 C31.958125 75.264375 31.97875 69.71625 32 64 C13.52 64 -4.96 64 -24 64 C-24 40 -24 40 -17.625 33.625 C-14 32 -14 32 0 32 C0 21.44 0 10.88 0 0 Z " fill="#E6F4F4" transform="translate(136,24)"/>
<path d="M0 0 C0.72816959 25.3066939 0.24723112 62.21009439 -17 83 C-19.63671875 83.6640625 -19.63671875 83.6640625 -22.6875 83.625 C-29.96673274 83.83179638 -36.52464659 85.39031141 -43.54296875 87.16015625 C-47 88 -47 88 -49 88 C-49.02445888 69.04786217 -48.13393894 51.80335168 -42.69287109 33.50341797 C-41.68283475 29.85404776 -41.06458481 26.16754913 -40.4375 22.4375 C-39.08483352 15.5511979 -37.44735264 11.6120086 -31.83984375 7.36328125 C-21.71370296 0.7355536 -11.90725524 -0.51112224 0 0 Z " fill="#335E32" transform="translate(496,64)"/>
<path d="M0 0 C4.23167484 -0.1249586 8.46233173 -0.21496477 12.6953125 -0.2746582 C14.13072448 -0.29957855 15.56601257 -0.33352875 17.00097656 -0.37719727 C27.39075896 -0.68512317 35.082378 0.31249785 43.48046875 6.96484375 C48.96260989 13.30004118 55.63632722 22.33276583 56.1875 30.921875 C56.0946875 31.95054688 56.0946875 31.95054688 56 33 C57.051875 32.9175 58.10375 32.835 59.1875 32.75 C69.34145746 32.78594321 78.86191517 37.23888054 87 43 C87.86367188 43.56332031 88.72734375 44.12664063 89.6171875 44.70703125 C93.55876116 47.62330459 95.74300144 49.43464511 96.55859375 54.40234375 C96.56212206 57.65191784 96.39800733 60.77663196 96 64 C68.90400968 64.97028082 32.98992391 61.1378718 12 42 C10.98758315 40.67607028 9.98560611 39.34400833 9 38 C8.01 37.34 7.02 36.68 6 36 C14.60513899 33.31648472 23.07271721 32.02404728 32 31 C31.24976563 30.70867188 30.49953125 30.41734375 29.7265625 30.1171875 C18.36298913 25.56603343 7.88214107 20.55944424 1.0625 10 C-0.1723115 6.51347341 -0.07365361 3.67401518 0 0 Z " fill="#FE9A00" transform="translate(200,16)"/>
<path d="M0 0 C2.00827038 -0.02468887 4.01606523 -0.08129949 6.02368164 -0.13818359 C16.89679394 -0.23708002 16.89679394 -0.23708002 20.54907227 2.66259766 C23.90989067 6.8363216 24.5724198 10.71780402 25.02563477 15.97509766 C25.89971974 20.26606024 27.43572397 21.50967496 30.71313477 24.35009766 C32.89075906 26.27241427 34.764458 28.16943556 36.71313477 30.35009766 C36.43030378 33.71647623 34.74018665 36.02594129 32.90063477 38.78759766 C24.19148412 53.03893507 22.38735948 70.95946245 21.71313477 87.35009766 C18.27937917 83.25354738 15.44052698 78.91720353 12.58813477 74.41259766 C5.92810766 64.02416061 -1.13366511 54.01675019 -8.72436523 44.28759766 C-9.17255615 43.70727783 -9.62074707 43.12695801 -10.08251953 42.52905273 C-12.41951581 39.54828799 -14.82129129 36.7549052 -17.49780273 34.07275391 C-25.08491987 26.30979197 -25.08491987 26.30979197 -25.66967773 20.63525391 C-24.77157721 13.12744867 -22.93723504 7.55799839 -17.22436523 2.53759766 C-11.98576613 -0.67315663 -5.94494224 0.05349942 0 0 Z " fill="#93BD2C" transform="translate(376.286865234375,7.64990234375)"/>
<path d="M0 0 C-0.9075 0.639375 -1.815 1.27875 -2.75 1.9375 C-7.17352423 5.64822885 -9.32804916 10.41397665 -10.3828125 16.04296875 C-10.71216434 21.54314441 -8.76576596 26.31022294 -6 31 C-5.45988281 31.54011719 -4.91976562 32.08023438 -4.36328125 32.63671875 C-3 34 -3 34 -3 36 C-1.515 36.495 -1.515 36.495 0 37 C0 37.66 0 38.32 0 39 C1.485 39.495 1.485 39.495 3 40 C3 40.66 3 41.32 3 42 C4.485 42.495 4.485 42.495 6 43 C6 43.66 6 44.32 6 45 C6.99 45.33 7.98 45.66 9 46 C9 46.66 9 47.32 9 48 C9.66 48 10.32 48 11 48 C11 48.66 11 49.32 11 50 C11.99 50.33 12.98 50.66 14 51 C14 51.66 14 52.32 14 53 C23.28015177 58.02674887 32.94880476 60.13153179 43.45556641 58.75878906 C51.01427578 56.50466617 56.35947157 49.03054846 61 43 C64.17763478 44.36281905 65.8713701 45.75529676 67.91796875 48.52734375 C68.44624268 49.23238037 68.9745166 49.93741699 69.51879883 50.66381836 C70.06947021 51.4141333 70.6201416 52.16444824 71.1875 52.9375 C72.33949812 54.48039829 73.49315033 56.02206293 74.6484375 57.5625 C75.21401367 58.31789062 75.77958984 59.07328125 76.36230469 59.8515625 C79.27611777 63.67409606 82.37485536 67.33488378 85.48828125 70.99609375 C87 73 87 73 87 75 C76.84646956 75.30320334 66.69404067 75.53318023 56.53688049 75.67355824 C51.81851668 75.74098849 47.10328168 75.83218809 42.38671875 75.98071289 C6.02516732 77.09647721 6.02516732 77.09647721 -3.2734375 68.68359375 C-4.88919286 67.02032713 -6.36593551 65.3411533 -7.78588867 63.50894165 C-9.47274806 61.41245154 -11.48431734 59.86297832 -13.625 58.25 C-20.22310013 52.35258307 -24.52008036 45.14297139 -25.21484375 36.25 C-25.55975406 25.43361265 -23.14034941 16.3098894 -16 8 C-5.27374302 -1.75791434 -5.27374302 -1.75791434 0 0 Z " fill="#F27923" transform="translate(99,141)"/>
<path d="M0 0 C7.83853634 8.21179997 10.98135257 16.96668763 10.75 28.125 C10.74097656 28.95644531 10.73195313 29.78789063 10.72265625 30.64453125 C10.6992622 32.67981337 10.66339725 34.71494564 10.625 36.75 C-14.02654126 37.52846972 -38.53615669 33.58712919 -57.25317383 16.09521484 C-62.61101241 10.80702907 -67.91856518 4.31293262 -69.375 -3.25 C-46.64040649 -13.61369758 -21.15138339 -15.41263596 0 0 Z " fill="#80A000" transform="translate(261.375,91.25)"/>
<path d="M0 0 C10.56 0 21.12 0 32 0 C32.04898438 2.40796875 32.09796875 4.8159375 32.1484375 7.296875 C32.20247488 9.63352579 32.25977147 11.97007555 32.31738281 14.30664062 C32.35562358 15.92830859 32.39048503 17.55005996 32.421875 19.171875 C32.46763257 21.50551117 32.52560816 23.83857562 32.5859375 26.171875 C32.59748871 26.89493835 32.60903992 27.61800171 32.62094116 28.36297607 C32.74395927 33.51399965 32.74395927 33.51399965 35 38 C38.46821241 38.89916618 40.92654257 39.33898656 44.375 38.25 C46.309697 37.00281178 46.309697 37.00281178 47 34 C47.15322359 31.41669771 47.25706889 28.85507761 47.31640625 26.26953125 C47.33718735 25.51911057 47.35796844 24.76868988 47.37937927 23.99552917 C47.44469926 21.60127816 47.50367792 19.20691861 47.5625 16.8125 C47.60570193 15.18813987 47.64931676 13.56379067 47.69335938 11.93945312 C47.80036263 7.95974629 47.90167937 3.97993042 48 0 C50.64 0 53.28 0 56 0 C56.09944869 5.81660061 56.1717413 11.63269792 56.21972656 17.44995117 C56.23974646 19.4256249 56.26697092 21.40124009 56.30175781 23.37670898 C56.35070207 26.2291515 56.37306525 29.08080549 56.390625 31.93359375 C56.41127014 32.80584091 56.43191528 33.67808807 56.45318604 34.57676697 C56.45646074 43.68355573 53.06893054 50.63986394 46.9375 57.2734375 C40.60663557 62.91505459 33.39567072 64.37299001 25.1328125 64.2734375 C16.95328021 63.55951324 10.38679333 59.03272104 5 53 C1.7107688 47.91405002 -0.13228882 42.86157783 -0.11352539 36.78222656 C-0.11344986 35.96167786 -0.11337433 35.14112915 -0.11329651 34.29571533 C-0.10813522 33.41953552 -0.10297394 32.54335571 -0.09765625 31.640625 C-0.0962413 30.73624695 -0.09482635 29.8318689 -0.09336853 28.90008545 C-0.08777911 26.01668973 -0.07522853 23.13337218 -0.0625 20.25 C-0.05748363 18.29296987 -0.05292096 16.33593853 -0.04882812 14.37890625 C-0.0386648 9.58588329 -0.01908728 4.79302896 0 0 Z " fill="#2FCEFE" transform="translate(136,88)"/>
<path d="M0 0 C40.22390809 -0.28490291 40.22390809 -0.28490291 58 5 C58.6604834 5.19110352 59.3209668 5.38220703 60.00146484 5.57910156 C71.06053652 8.84798088 71.06053652 8.84798088 74.26171875 12.7734375 C81.72888637 26.63384301 83.74145583 45.45688882 83 61 C82.30777344 60.47212891 82.30777344 60.47212891 81.6015625 59.93359375 C72.96177309 53.3939903 64.30481159 47.27881735 54.6875 42.25 C53.24685181 41.49444824 53.24685181 41.49444824 51.77709961 40.72363281 C39.3074089 34.38160522 26.15799477 29.69319061 13 25 C12.9589917 24.4112207 12.9179834 23.82244141 12.87573242 23.21582031 C12.21310352 15.6006491 9.81308268 9.76143822 4.26953125 4.29296875 C2.88261771 3.14983574 1.44605987 2.0673299 0 1 C0 0.67 0 0.34 0 0 Z " fill="#88AB01" transform="translate(339,125)"/>
<path d="M0 0 C7.25414441 1.371393 13.71308936 3.68335332 20.5 6.5625 C21.55155273 7.00650146 22.60310547 7.45050293 23.68652344 7.90795898 C37.56864238 13.85789186 50.30614512 20.35706736 62 30 C62.75539063 30.5259375 63.51078125 31.051875 64.2890625 31.59375 C67.75640951 34.30131977 68.86214639 36.02509924 69.48828125 40.453125 C69.62731119 47.79975972 68.61955584 53.71199871 67 61 C54.13 61 41.26 61 28 61 C27.175 57.844375 26.35 54.68875 25.5 51.4375 C21.67535655 37.67006307 15.75292447 26.90418242 6.984375 15.65625 C3.42975606 10.89809866 0.74768449 5.98147594 0 0 Z " fill="#80A100" transform="translate(353,155)"/>
<path d="M0 0 C1.38509525 1.62390477 2.70758949 3.30140333 4 5 C26.76603009 23.5408935 59.10748358 25.19473255 87 27 C87 29.64 87 32.28 87 35 C86.00419922 35.29390625 86.00419922 35.29390625 84.98828125 35.59375 C84.10527344 35.8928125 83.22226562 36.191875 82.3125 36.5 C81.44238281 36.7784375 80.57226562 37.056875 79.67578125 37.34375 C75.71117053 39.79775722 73.70946359 42.6768577 72 47 C71.38914378 50.90357168 71.43331336 54.68354094 71.5625 58.625 C71.56830078 59.635625 71.57410156 60.64625 71.58007812 61.6875 C71.66427211 66.81996538 71.96284384 71.20572888 74 76 C68.555 75.505 68.555 75.505 63 75 C62.98582031 73.83984375 62.97164063 72.6796875 62.95703125 71.484375 C62.67756463 60.4430751 61.47275411 50.86876904 54.8125 41.625 C43.11060198 30.70322852 27.45998481 27.61139669 11.8984375 27.7109375 C1.92581471 28.45039049 -7.58869163 31.78984695 -17 35 C-17.01981934 34.39003174 -17.03963867 33.78006348 -17.06005859 33.15161133 C-17.15567876 30.37149467 -17.26520705 27.59209154 -17.375 24.8125 C-17.4059375 23.85279297 -17.436875 22.89308594 -17.46875 21.90429688 C-17.50742188 20.97294922 -17.54609375 20.04160156 -17.5859375 19.08203125 C-17.6173584 18.22843018 -17.6487793 17.3748291 -17.68115234 16.49536133 C-18.03349578 13.73785578 -18.87071247 11.53000031 -20 9 C-6.97708165 -1.21340551 -6.97708165 -1.21340551 0 0 Z " fill="#F0681B" transform="translate(209,53)"/>
<path d="M0 0 C4.42660705 3.46880319 7.86446909 7.02579347 11.25 11.5 C11.72397217 12.11673584 12.19794434 12.73347168 12.6862793 13.36889648 C13.66156375 14.6384716 14.63447783 15.90987125 15.60498047 17.18310547 C16.86562115 18.82498295 18.15205319 20.4469788 19.44140625 22.06640625 C24.72867776 28.74735723 29.57419016 35.66882139 34.3125 42.75 C34.89942627 43.625354 35.48635254 44.50070801 36.09106445 45.40258789 C39.66561788 50.80040347 42.95103179 56.28871123 46 62 C42.96932872 60.82274721 39.99016645 59.55849258 37.0234375 58.23046875 C19.01107469 50.25663186 -8.16943841 39.3898128 -28 46 C-28.84285926 24.296374 -28.84285926 24.296374 -20.50512695 14.45849609 C-17.87260847 11.90753658 -14.72579475 10.48626419 -11.4375 8.9375 C-6.47790069 6.58617482 -3.18700023 4.67913265 0 0 Z " fill="#88AB01" transform="translate(348,35)"/>
<path d="M0 0 C5.04852212 3.83232701 8.66950189 8.24476877 12.578125 13.19824219 C13.58775633 14.47761706 14.60117363 15.75400823 15.6171875 17.02832031 C23.59818127 27.04518976 31.09183266 37.21686725 38 48 C38.87070724 49.347906 39.74180731 50.69555832 40.61328125 52.04296875 C42.7521562 55.35567135 44.87935228 58.67560297 47 62 C47.09796875 60.741875 47.1959375 59.48375 47.296875 58.1875 C50.53563956 19.7973943 50.53563956 19.7973943 63 9 C63.99 9.33 64.98 9.66 66 10 C65.40019224 13.0122214 64.47217626 14.95663424 62.6875 17.4375 C56.47692022 27.15607298 54.36851059 39.68217734 53 51 C52.85062988 52.23218262 52.85062988 52.23218262 52.69824219 53.48925781 C51.22062984 67.8623961 54.33973625 77.4792053 61.02734375 90.09765625 C64.19292942 96.13957081 66.45293008 102.33612036 68.5625 108.8125 C68.88412109 109.78429199 69.20574219 110.75608398 69.53710938 111.75732422 C72.66804872 121.53728324 74.3106277 130.69849639 74.30078125 140.9765625 C74.30506638 141.98665375 74.3093515 142.996745 74.31376648 144.03744507 C74.31947053 146.15679174 74.32003929 148.27615797 74.31567383 150.39550781 C74.31250159 153.62338666 74.33606521 156.85035823 74.36132812 160.078125 C74.36360042 162.14843636 74.36430494 164.21875015 74.36328125 166.2890625 C74.372491 167.2444693 74.38170074 168.1998761 74.39118958 169.18423462 C74.35032551 175.14179928 73.41969928 179.54477977 71 185 C70.67 185 70.34 185 70 185 C70.165 183.824375 70.33 182.64875 70.5 181.4375 C70.68054388 179.62632968 70.8448958 177.81352604 71 176 C71.11472656 174.7934375 71.22945313 173.586875 71.34765625 172.34375 C71.83192814 165.24865404 71.83192814 165.24865404 69.7421875 158.609375 C67.65818587 156.39004859 65.49839452 154.74306594 63 153 C61.989375 152.236875 60.97875 151.47375 59.9375 150.6875 C44.93895383 139.75609992 27.37621101 132.23436308 9.74194336 126.72412109 C8.87061768 126.43617676 7.99929199 126.14823242 7.1015625 125.8515625 C6.33150879 125.61260254 5.56145508 125.37364258 4.76806641 125.12744141 C3 124 3 124 2.24365234 121.38427734 C2.16324707 120.59746582 2.0828418 119.8106543 2 119 C9.39962752 120.86498282 16.45022588 123.14466431 23.5 126.0625 C24.44270752 126.45171631 25.38541504 126.84093262 26.35668945 127.24194336 C40.08471747 133.02380077 53.37056437 139.6005816 65 149 C65.65742188 149.52980469 66.31484375 150.05960938 66.9921875 150.60546875 C68.34425584 151.717654 69.67581462 152.85475859 71 154 C71.80652879 138.76556722 69.68568611 118.02852917 61 105 C59.06568983 103.98233984 59.06568983 103.98233984 56.78125 103.24609375 C55.93046875 102.94896484 55.0796875 102.65183594 54.203125 102.34570312 C53.31109375 102.04599609 52.4190625 101.74628906 51.5 101.4375 C50.63890625 101.13392578 49.7778125 100.83035156 48.890625 100.51757812 C40.97672585 97.79865618 33.05894344 95.93744643 24.6875 95.4375 C23.4396875 95.36144531 22.191875 95.28539063 20.90625 95.20703125 C16.82412786 95.01132531 12.74191013 94.91665216 8.65625 94.82421875 C6.66744541 94.77338081 4.67864087 94.72253916 2.68984985 94.6711731 C0.70256297 94.62534734 -1.28509495 94.59666546 -3.27270508 94.56811523 C-4.49884521 94.53790283 -5.72498535 94.50769043 -6.98828125 94.4765625 C-8.09727783 94.45674316 -9.20627441 94.43692383 -10.34887695 94.41650391 C-11.22374756 94.27905762 -12.09861816 94.14161133 -13 94 C-13.66 93.01 -14.32 92.02 -15 91 C-11.4619709 89.82065697 -8.22008211 89.80107889 -4.53515625 89.76171875 C-3.7939856 89.75201553 -3.05281494 89.74231232 -2.28918457 89.73231506 C0.11976489 89.70728861 2.52843331 89.69477265 4.9375 89.6875 C5.75445343 89.68488159 6.57140686 89.68226318 7.41311646 89.67956543 C20.01093641 89.67522429 31.84297536 90.44388384 44 94 C44.6707959 94.19207031 45.3415918 94.38414063 46.03271484 94.58203125 C48.92965352 95.42259377 51.80311969 96.30952586 54.6640625 97.265625 C56.90988007 98.09996985 56.90988007 98.09996985 59 98 C58.65219482 97.22922119 58.65219482 97.22922119 58.29736328 96.44287109 C57.23691006 94.08825156 56.18092659 91.73165276 55.125 89.375 C54.57779297 88.16263672 54.57779297 88.16263672 54.01953125 86.92578125 C52.47483969 83.47128921 51.05235731 80.17980069 49.9921875 76.5390625 C49.25617242 73.94183524 49.25617242 73.94183524 47.3359375 72.88671875 C46.56507813 72.59410156 45.79421875 72.30148438 45 72 C43.89914062 71.36707031 42.79828125 70.73414062 41.6640625 70.08203125 C19.94627237 57.73511092 -2.4477829 54.1528285 -27 52 C-27 50.68 -27 49.36 -27 48 C-3.89613663 47.07993464 17.19651214 53.08565306 38.0703125 62.6796875 C40.61637313 64.06847834 40.61637313 64.06847834 42 64 C31.88612897 46.45396616 20.3337188 29.55547719 6.83203125 14.41796875 C6.31648682 13.83370117 5.80094238 13.24943359 5.26977539 12.64746094 C4.28144222 11.53544719 3.279867 10.43501592 2.26342773 9.34863281 C0.921875 7.83984375 0.921875 7.83984375 -1 5 C-0.796875 2.12890625 -0.796875 2.12890625 0 0 Z " fill="#B5D36A" transform="translate(350,31)"/>
<path d="M0 0 C5.84564756 0.09264101 9.24425509 1.63845999 13.359375 5.8671875 C16.66515793 9.93234052 17.26785842 14.29337427 18.1953125 19.328125 C19.55643447 25.8120151 22.6303243 29.87293607 28 33.875 C31.26734041 36.63408746 32.60365512 38.41049428 33.0871582 42.66918945 C33.11590971 45.63435665 33.14043505 48.59715464 33.125 51.5625 C33.11871582 53.18575195 33.11871582 53.18575195 33.11230469 54.84179688 C32.97532462 64.60527003 31.57166504 73.38611652 28.7578125 82.765625 C25.85078597 92.90838911 25.27858447 102.55692174 25.14013672 113.11035156 C25.12225098 114.2340918 25.10436523 115.35783203 25.0859375 116.515625 C25.07997559 117.52399414 25.07401367 118.53236328 25.06787109 119.57128906 C24.80361027 122.3432487 24.40068767 123.97036091 22.8125 126.25 C19.5 127.3125 19.5 127.3125 15.8125 127.25 C12.61167017 124.74500274 11.0997642 123.1117926 9.8125 119.25 C8.96558544 108.69827767 10.3942144 100.35408143 15.5625 91.125 C17.34091772 87.03463925 17.58830073 83.64158626 16.8125 79.25 C16.03569964 77.45364916 15.19779368 75.68293698 14.3125 73.9375 C10.82125077 66.90569012 11.20360332 60.43616465 12.3125 52.8125 C13.55519815 43.95827566 14.06782369 35.8253997 8.8125 28.25 C8.30847656 27.61835937 7.80445313 26.98671875 7.28515625 26.3359375 C5.69180018 24.07903527 4.93494316 22.05071417 4.0625 19.4375 C2.28173082 14.70037574 -0.06144927 12.19165258 -3.765625 8.8515625 C-5.1875 7.25 -5.1875 7.25 -5.6875 3.875 C-4.91238831 -0.19433639 -3.87618079 0.07791318 0 0 Z " fill="#B8D570" transform="translate(423.1875,23.75)"/>
<path d="M0 0 C5.7607313 5.16258 7.54678566 11.86612307 8.21247864 19.40689468 C8.55516307 26.24392992 8.45932101 33.08304315 8.390625 39.92578125 C8.38315119 42.12680036 8.37746365 44.32782619 8.37347412 46.52885437 C8.35830762 52.28118736 8.31910434 58.03310701 8.2746582 63.78527832 C8.23351039 69.67124849 8.21542167 75.55728639 8.1953125 81.44335938 C8.1526005 92.96241974 8.0844596 104.4811753 8 116 C6.63788384 113.33665006 5.58544888 110.86362085 4.80859375 107.97265625 C1.03373002 94.42780326 -3.50454998 80.87069624 -10.37255859 68.53466797 C-13.81520559 62.2992302 -14.74034033 57.46314244 -14.5 50.375 C-14.48227539 49.41859619 -14.46455078 48.46219238 -14.44628906 47.47680664 C-14.19574524 39.06458666 -13.05370718 31.16194356 -11 23 C-10.70996094 21.82695313 -10.41992188 20.65390625 -10.12109375 19.4453125 C-8.12764185 12.22217717 -5.39993215 5.39993215 0 0 Z " fill="#89B029" transform="translate(416,43)"/>
<path d="M0 0 C0.66 0 1.32 0 2 0 C2.08636719 0.70125 2.17273438 1.4025 2.26171875 2.125 C3.37762148 9.6599028 5.0335455 15.37578383 10.765625 20.61328125 C15.44438547 24.06877801 20.44981964 26.00533093 25.875 27.9375 C37.16334907 31.96013284 46.71379281 37.02684267 52.08105469 48.26318359 C53.04567604 50.65867669 53.93977356 53.06958047 54.8125 55.5 C57.64726503 63.04580771 60.92175214 69.96575225 65.20629883 76.79882812 C67.58042481 80.70138613 68.64668137 83.42750549 68 88 C65.8125 90.875 65.8125 90.875 63 93 C60.32421875 93.1328125 60.32421875 93.1328125 58 93 C57.98582031 92.05640625 57.97164063 91.1128125 57.95703125 90.140625 C57.42671305 75.86503235 53.57093612 66.02928485 43 56 C42.33355469 55.36320312 41.66710937 54.72640625 40.98046875 54.0703125 C30.13892056 44.74202056 14.47056405 39.53323384 0.375 38.6875 C-3 38 -3 38 -4.6796875 35.66796875 C-6.50375863 30.60050488 -6.51363932 25.97161178 -6.5 20.625 C-6.52835937 19.62210938 -6.55671875 18.61921875 -6.5859375 17.5859375 C-6.60389356 10.72672177 -5.35858026 6.34306823 -1 1 C-0.67 0.67 -0.34 0.34 0 0 Z " fill="#628B1B" transform="translate(286,91)"/>
<path d="M0 0 C1.59811523 0.02707031 1.59811523 0.02707031 3.22851562 0.0546875 C5.84078929 0.10154443 8.45116226 0.16713074 11.0625 0.25 C8.58828357 1.48981524 6.10934 2.71791491 3.625 3.9375 C-1.76919699 7.06106279 -4.33128872 11.8497255 -6.875 17.375 C-9.80562539 23.38683627 -14.04929946 25.89247513 -19.9375 28.5625 C-25.15064657 31.03933434 -28.1078397 34.25893867 -30.9375 39.25 C-31.94813129 42.28189386 -32.09022824 44.44237986 -32.1484375 47.6171875 C-32.19097656 49.19306641 -32.19097656 49.19306641 -32.234375 50.80078125 C-32.28627082 53.00894855 -32.3305974 55.2173073 -32.3671875 57.42578125 C-32.41359375 59.00552734 -32.41359375 59.00552734 -32.4609375 60.6171875 C-32.48075684 61.57737793 -32.50057617 62.53756836 -32.52099609 63.52685547 C-33.00926945 66.71923591 -34.05522596 68.64564296 -35.9375 71.25 C-38.56628161 72.37276504 -41.09846191 72.45605922 -43.9375 72.25 C-47.20461826 70.57455474 -47.765311 69.76656699 -48.9375 66.25 C-49.07017023 63.58909263 -49.14967026 60.95516876 -49.17578125 58.29296875 C-49.183853 57.51238602 -49.19192474 56.73180328 -49.20024109 55.92756653 C-49.2140632 54.27587086 -49.22479373 52.62414685 -49.23266602 50.97241211 C-49.24418586 49.28775636 -49.26463795 47.60313711 -49.29418945 45.91870117 C-49.33696131 43.48070547 -49.35304771 41.04379354 -49.36328125 38.60546875 C-49.38078934 37.85839157 -49.39829742 37.11131439 -49.41633606 36.34159851 C-49.39492823 31.14170676 -48.19279866 28.26395671 -44.9375 24.25 C-41.51490817 21.05896967 -38.14470752 19.28343958 -33.8125 17.5625 C-32.77867187 17.14613281 -31.74484375 16.72976562 -30.6796875 16.30078125 C-28.78178587 15.57352265 -26.86567066 14.89272355 -24.9375 14.25 C-23.92833967 12.48408113 -23.92833967 12.48408113 -22.9375 10.25 C-17.32167242 0.26630652 -10.58428123 -0.34164036 0 0 Z " fill="#B8D670" transform="translate(344.9375,7.75)"/>
<path d="M0 0 C3.19243789 0.58094123 4.83182218 1.4566678 7.11621094 3.74389648 C7.69651062 4.31796738 8.2768103 4.89203827 8.87469482 5.48350525 C9.79523651 6.41786156 9.79523651 6.41786156 10.734375 7.37109375 C11.37240051 8.00862076 12.01042603 8.64614777 12.66778564 9.30299377 C14.01276246 10.65030884 15.35405267 12.00131278 16.69189453 13.35571289 C18.74742783 15.43489823 20.81601643 17.50038609 22.88671875 19.56445312 C24.19089948 20.87420856 25.49431191 22.18472956 26.796875 23.49609375 C27.41866638 24.11697372 28.04045776 24.7378537 28.68109131 25.37754822 C33 29.76897504 33 29.76897504 33 32 C25.24884514 33.98413297 17.49519828 35.95808021 9.73816299 37.9190836 C6.13632181 38.82998028 2.53543982 39.74435729 -1.06347656 40.66674805 C-4.53678491 41.55680875 -8.01231292 42.43764795 -11.48957062 43.31214714 C-12.81566782 43.64736627 -14.14093234 43.98589748 -15.4653244 44.32779121 C-17.32067388 44.80614952 -19.17932455 45.27164811 -21.03808594 45.73657227 C-22.6236026 46.13961327 -22.6236026 46.13961327 -24.2411499 46.55079651 C-26.9315359 46.98885249 -28.46189382 46.90296819 -31 46 C-30.46169052 45.20193184 -30.46169052 45.20193184 -29.9125061 44.38774109 C-26.18148312 38.85629675 -22.45057214 33.32477688 -18.71972656 27.79321289 C-17.32685174 25.72808928 -15.93394825 23.66298501 -14.54101562 21.59790039 C-12.54028934 18.63172392 -10.53966578 15.66547819 -8.5390625 12.69921875 C-7.91504547 11.7741301 -7.29102844 10.84904144 -6.64810181 9.8959198 C-6.06765106 9.03525406 -5.48720032 8.17458832 -4.88916016 7.2878418 C-4.37841949 6.53061325 -3.86767883 5.7733847 -3.34146118 4.99320984 C-2.22326728 3.33174165 -1.1109018 1.6663527 0 0 Z " fill="#A15C27" transform="translate(391,457)"/>
<path d="M0 0 C7.83853634 8.21179997 10.98135257 16.96668763 10.75 28.125 C10.74097656 28.95644531 10.73195313 29.78789063 10.72265625 30.64453125 C10.6992622 32.67981337 10.66339725 34.71494564 10.625 36.75 C9.8928125 36.01265625 9.160625 35.2753125 8.40625 34.515625 C-13.5335242 12.69910796 -37.21545695 1.71473092 -67.375 -3.25 C-64.57879134 -6.04620866 -61.25960052 -6.70304063 -57.5625 -7.8125 C-56.85029297 -8.03357422 -56.13808594 -8.25464844 -55.40429688 -8.48242188 C-36.63688682 -14.22896464 -16.070976 -11.71063367 0 0 Z " fill="#A1C103" transform="translate(261.375,91.25)"/>
<path d="M0 0 C4.23167484 -0.1249586 8.46233173 -0.21496477 12.6953125 -0.2746582 C14.13072448 -0.29957855 15.56601257 -0.33352875 17.00097656 -0.37719727 C27.39075896 -0.68512317 35.082378 0.31249785 43.48046875 6.96484375 C48.96260989 13.30004118 55.63632722 22.33276583 56.1875 30.921875 C56.0946875 31.95054688 56.0946875 31.95054688 56 33 C37.64156708 32.63718512 20.33242673 30.30697652 6.375 16.9375 C1.3365032 11.41003515 -0.14112744 7.48857475 0 0 Z " fill="#A1C102" transform="translate(200,16)"/>
<path d="M0 0 C10.63516659 6.2020711 19.13912833 19.82816635 26.75 29.2578125 C28.41125748 31.28247006 30.09221891 33.26899246 31.8125 35.2421875 C32.28091309 35.78536621 32.74932617 36.32854492 33.23193359 36.88818359 C34.55667398 38.4209449 35.8913591 39.94509447 37.2265625 41.46875 C38.10441406 42.72171875 38.10441406 42.72171875 39 44 C38 47 38 47 35.5625 48.6875 C31.01159828 50.364148 26.7911363 50.9275523 22 50 C17.14488785 47.11258138 13.32653911 43.62008525 9.359375 39.625 C8.75111877 39.01865723 8.14286255 38.41231445 7.51617432 37.78759766 C6.23977003 36.51254718 4.96585908 35.23499629 3.69433594 33.95507812 C1.74894795 31.99894214 -0.2069308 30.05375346 -2.1640625 28.109375 C-3.40689208 26.86522441 -4.64910144 25.62045387 -5.890625 24.375 C-6.47394592 23.79572754 -7.05726685 23.21645508 -7.65826416 22.61962891 C-11.67360339 18.55750409 -14.28166264 15.49355212 -14.3125 9.5625 C-14.22794426 5.61439745 -13.54853693 3.13666084 -11 0 C-7.40080479 -1.79959761 -3.78405896 -1.04535393 0 0 Z " fill="#87AA00" transform="translate(47,89)"/>
<path d="M0 0 C1.19615102 1.79422653 2.36626228 3.60689369 3.48046875 5.453125 C13.11345749 21.23623699 27.49278897 30.33165325 45.23046875 35.375 C50.75925519 36.622681 56.37843374 37.31147964 62 38 C62 38.33 62 38.66 62 39 C60.92363281 39.10957031 59.84726563 39.21914062 58.73828125 39.33203125 C38.75866564 41.45776675 17.26843862 45.91010056 3.3046875 61.71484375 C2 63 2 63 0 63 C0 42.21 0 21.42 0 0 Z " fill="#F0671C" transform="translate(192,89)"/>
<path d="M0 0 C2.28295134 2.05176639 4.17887518 4.08533621 5.8515625 6.6640625 C6.2640625 7.2621875 6.6765625 7.8603125 7.1015625 8.4765625 C8.55120859 12.70469692 8.67001161 16.57820918 7.046875 20.71484375 C1.33571693 30.85707274 -8.43511069 35.32993791 -19.1484375 38.6640625 C-45.34630741 45.72865663 -76.03640759 45.9225017 -100.34765625 32.55859375 C-105.68584124 28.94768758 -110.65441534 24.13815855 -112.1484375 17.6640625 C-112.77881282 11.99068459 -111.61336004 8.13226112 -108.1484375 3.6640625 C-85.32132723 -21.77004365 -25.56692642 -19.94395979 0 0 Z M-104.9609375 6.1640625 C-107.40676731 9.53840178 -108.22506755 12.44940997 -108.1484375 16.6640625 C-105.93747215 23.43514388 -101.19292811 27.07613656 -95.0703125 30.26953125 C-70.20787741 41.55796871 -39.84680571 41.5406223 -14.1484375 32.6640625 C-7.35613095 29.77461027 -0.84260323 26.31076221 2.8515625 19.6640625 C4.31569616 15.56607969 4.26444462 12.56163234 2.4140625 8.5390625 C-8.94525946 -4.20554262 -26.05881647 -7.90558327 -42.51171875 -9.2109375 C-62.28757674 -10.14845966 -90.21822384 -9.53321536 -104.9609375 6.1640625 Z " fill="#F7AD20" transform="translate(276.1484375,289.3359375)"/>
<path d="M0 0 C2 1 2 1 2.9375 3.4375 C5.37154047 6.46161088 6.04955741 6.44589458 9.75 7.02734375 C11.23197876 7.26674683 11.23197876 7.26674683 12.74389648 7.51098633 C14.35566772 7.7530481 14.35566772 7.7530481 16 8 C17.66494507 8.2623645 17.66494507 8.2623645 19.36352539 8.5300293 C22.92703843 9.08262227 26.49384968 9.60669145 30.0625 10.125 C31.86557617 10.39763672 31.86557617 10.39763672 33.70507812 10.67578125 C43.83049084 12.41566348 43.83049084 12.41566348 54 12 C55.56207883 10.66986999 55.56207883 10.66986999 56.75 8.9375 C57.4925 7.968125 58.235 6.99875 59 6 C62.30378553 5.93392429 64.10371715 6.4795777 66.9375 8.125 C68.63027642 11.11225251 67.65637396 13.79600508 67 17 C66.64071545 19.14498236 66.28683293 21.29087446 65.9375 23.4375 C65.62579549 25.29180056 65.3135643 27.14601302 65 29 C53.33929442 28.54851741 41.69428082 27.76970543 30.06045532 26.86758423 C28.4842299 26.74796405 26.90752842 26.63445301 25.33041382 26.52719116 C23.07669493 26.37233422 20.82581249 26.19463548 18.57421875 26.01171875 C17.26026123 25.91334717 15.94630371 25.81497559 14.5925293 25.71362305 C7.76505207 24.35740722 4.02870098 20.29486415 0 15 C-1.30459914 12.39080172 -1.1326594 10.41057385 -1.125 7.5 C-1.12757813 6.5203125 -1.13015625 5.540625 -1.1328125 4.53125 C-1 2 -1 2 0 0 Z " fill="#638C1A" transform="translate(9,146)"/>
<path d="M0 0 C10.56 0 21.12 0 32 0 C32 10.56 32 21.12 32 32 C21.44 32 10.88 32 0 32 C0 21.44 0 10.88 0 0 Z " fill="#01A3EC" transform="translate(136,24)"/>
<path d="M0 0 C0.98613281 0.00322266 1.97226562 0.00644531 2.98828125 0.00976562 C4.02082031 0.01814453 5.05335938 0.02652344 6.1171875 0.03515625 C7.67759766 0.04192383 7.67759766 0.04192383 9.26953125 0.04882812 C11.84380712 0.06063673 14.41796896 0.0771055 16.9921875 0.09765625 C12.56412651 4.84461052 7.54584132 8.63961691 2.3671875 12.53515625 C0.98732666 13.57446289 0.98732666 13.57446289 -0.42041016 14.63476562 C-2.33192124 16.07289719 -4.24453071 17.50956991 -6.15820312 18.94482422 C-8.91315341 21.0261429 -11.64228433 23.13737729 -14.3671875 25.2578125 C-16.0386649 26.5382796 -17.71052295 27.81825 -19.3828125 29.09765625 C-20.14803223 29.70279053 -20.91325195 30.3079248 -21.70166016 30.93139648 C-25.27302144 33.63068118 -27.33626243 35.01115842 -31.859375 35.59375 C-35.0078125 35.09765625 -35.0078125 35.09765625 -38.0078125 33.16015625 C-40.41030151 29.48134495 -40.41485973 27.97528059 -39.64453125 23.77734375 C-39.43441406 22.89304688 -39.22429687 22.00875 -39.0078125 21.09765625 C-38.76675781 19.98648438 -38.52570313 18.8753125 -38.27734375 17.73046875 C-35.9893409 8.75830036 -35.9893409 8.75830036 -31.7578125 5.91015625 C-30.5203125 5.64203125 -29.2828125 5.37390625 -28.0078125 5.09765625 C-26.2134375 4.50984375 -26.2134375 4.50984375 -24.3828125 3.91015625 C-18.69514001 2.55006066 -12.81352421 2.93835318 -7.0078125 3.09765625 C-7.0078125 2.43765625 -7.0078125 1.77765625 -7.0078125 1.09765625 C-4.50284246 -0.15482877 -2.79927976 -0.01608781 0 0 Z " fill="#587F19" transform="translate(486.0078125,143.90234375)"/>
<path d="M0 0 C-2.38356123 7.8692573 -5.65562493 15.28363218 -9.04296875 22.75878906 C-10.00571735 24.88764235 -10.95625009 27.02168231 -11.90625 29.15625 C-12.52010379 30.51855813 -13.13466192 31.88054916 -13.75 33.2421875 C-14.03133789 33.87655731 -14.31267578 34.51092712 -14.60253906 35.16452026 C-17.27883091 41.01801153 -17.27883091 41.01801153 -20 43 C-23.70695534 43.40439513 -26.07814135 43.5094482 -29.375 41.6875 C-32.43671822 38.50802339 -32.11807003 35.2043569 -32.09765625 31.01953125 C-32.09443359 29.85615234 -32.09121094 28.69277344 -32.08789062 27.49414062 C-32.07951172 26.27919922 -32.07113281 25.06425781 -32.0625 23.8125 C-32.05798828 22.58595703 -32.05347656 21.35941406 -32.04882812 20.09570312 C-32.03703065 17.06375332 -32.02056921 14.03190094 -32 11 C-32.66 11 -33.32 11 -34 11 C-34 10.34 -34 9.68 -34 9 C-23.67510379 0.95957107 -12.72609991 -0.54627138 0 0 Z " fill="#336B2E" transform="translate(496,64)"/>
<path d="M0 0 C7.9025901 1.81337139 15.85544189 6.39929968 20.5 13.1875 C22.83327776 17.85405552 22.77022695 22.92933925 22 28 C20.5 30.6875 20.5 30.6875 18 32 C11.9117871 32.70672546 8.96548963 31.89310367 4.16479492 28.13842773 C3.5122876 27.59774658 2.85978027 27.05706543 2.1875 26.5 C0.7922692 25.39637325 -0.60356697 24.29351141 -2 23.19140625 C-2.67675781 22.64758301 -3.35351562 22.10375977 -4.05078125 21.54345703 C-6.74167448 19.41271718 -9.51574591 17.42721202 -12.3125 15.4375 C-18.23332388 11.2212931 -18.23332388 11.2212931 -20 9 C-19.875 5.4375 -19.875 5.4375 -19 2 C-13.69413638 -1.53724241 -6.22932636 -0.62060537 0 0 Z " fill="#FE6565" transform="translate(303,142)"/>
<path d="M0 0 C4.03556631 0.52821549 6.17712748 1.59326602 9.1875 4.3125 C9.86167969 4.90675781 10.53585938 5.50101562 11.23046875 6.11328125 C15.01018594 10.14331083 15.42936264 14.22918136 15.8515625 19.58203125 C15.94719986 20.68063728 15.94719986 20.68063728 16.04476929 21.80143738 C16.1778918 23.34850047 16.30708903 24.89590571 16.43261719 26.44360352 C16.62354612 28.79459772 16.82629758 31.14433162 17.03125 33.49414062 C17.15955278 35.00254491 17.28717873 36.51100694 17.4140625 38.01953125 C17.47340973 38.71456253 17.53275696 39.40959381 17.59390259 40.12568665 C17.93954405 44.42802349 18.05265485 48.68475937 18 53 C14.30067639 54.23310787 10.83887161 54.71204877 7 54 C-2.44838049 44.79388568 -2.12581186 23.99336054 -2.37670898 11.45947266 C-2.37002811 3.55504216 -2.37002811 3.55504216 0 0 Z " fill="#87AA00" transform="translate(92,72)"/>
<path d="M0 0 C1.26070312 0.01804688 2.52140625 0.03609375 3.8203125 0.0546875 C6.92265614 0.10169271 10.0234338 0.16739324 13.125 0.25 C12.52945313 0.53359375 11.93390625 0.8171875 11.3203125 1.109375 C7.28078292 3.20820532 3.87055471 5.5801617 1.984375 9.8046875 C0.87323509 14.25934841 0.6658959 18.55146234 0.5 23.125 C0.37625 26.13625 0.2525 29.1475 0.125 32.25 C-7.795 32.25 -15.715 32.25 -23.875 32.25 C-23.9575 28.74375 -24.04 25.2375 -24.125 21.625 C-24.16141602 20.53106934 -24.19783203 19.43713867 -24.23535156 18.31005859 C-24.30191017 12.45826874 -24.03909228 8.73122513 -19.875 4.25 C-14.26538216 -1.30444128 -7.37442052 -0.19972389 0 0 Z " fill="#CEDADA" transform="translate(135.875,55.75)"/>
<path d="M0 0 C2.71075859 0.78431742 5.42861877 1.53903701 8.1484375 2.29125977 C9.87288696 2.78107043 11.59686465 3.27254578 13.3203125 3.76586914 C14.13372101 3.99099686 14.94712952 4.21612457 15.78518677 4.44807434 C17.74148356 5.02559947 19.65812823 5.73433444 21.5625 6.46508789 C22.0575 7.95008789 22.0575 7.95008789 22.5625 9.46508789 C20.96822822 12.26880723 20.11362795 13.65968531 17.5625 15.46508789 C9.42643877 17.02633786 -0.17164513 14.6331034 -8.2980957 13.49365234 C-10.76027509 13.15115861 -13.22453105 12.82818928 -15.68945312 12.50610352 C-17.26839134 12.28918171 -18.84717385 12.07112291 -20.42578125 11.85180664 C-21.15606033 11.7579216 -21.88633942 11.66403656 -22.63874817 11.56730652 C-26.85705432 10.95501607 -30.04492572 10.09358679 -33.4375 7.46508789 C-34.75 4.27758789 -34.75 4.27758789 -35.4375 1.46508789 C-25.14436425 -9.09891985 -12.73537354 -3.69770634 0 0 Z " fill="#87AA00" transform="translate(45.4375,143.534912109375)"/>
<path d="M0 0 C5.28 0 10.56 0 16 0 C16.06900495 4.75111878 16.12869507 9.50048771 16.16479492 14.25170898 C16.17984876 15.86667789 16.20029648 17.48160613 16.22631836 19.09643555 C16.26285286 21.42246555 16.27976015 23.74795341 16.29296875 26.07421875 C16.30845261 26.79212082 16.32393646 27.51002289 16.33988953 28.24967957 C16.34136511 32.67999919 15.73905727 35.48259257 13 39 C10.37121839 40.12276504 7.83903809 40.20605922 5 40 C1.73288174 38.32455474 1.172189 37.51656699 0 34 C-0.08481773 31.41369776 -0.11598229 28.85521944 -0.09765625 26.26953125 C-0.0962413 25.51911057 -0.09482635 24.76868988 -0.09336853 23.99552917 C-0.0877756 21.6011454 -0.07522444 19.20685547 -0.0625 16.8125 C-0.05748408 15.18815239 -0.05292134 13.56380332 -0.04882812 11.93945312 C-0.0386598 7.95957025 -0.01908312 3.97989007 0 0 Z " fill="#98EEFF" transform="translate(168,88)"/>
<path d="M0 0 C33.60793286 18.2797048 33.60793286 18.2797048 47.125 26.3125 C47.72731445 26.66675049 48.32962891 27.02100098 48.95019531 27.38598633 C52.87752438 29.75504875 52.87752438 29.75504875 54 32 C36.90846638 32.68366134 22.3090865 30.16425975 8.5078125 18.98046875 C3.59333823 14.27301446 0.15232693 10.14808984 -0.1875 3.125 C-0.125625 2.09375 -0.06375 1.0625 0 0 Z " fill="#89AC00" transform="translate(200,16)"/>
<path d="M0 0 C3.05955937 1.23295676 6.0386068 2.57484686 7.76953125 5.42578125 C8.14453125 8.98828125 8.14453125 8.98828125 7.76953125 12.42578125 C3.61313348 15.1967131 0.44809242 14.33946148 -4.23046875 13.42578125 C-17.49723052 10.15901948 -17.49723052 10.15901948 -20.23046875 7.42578125 C-20.16796875 4.98828125 -20.16796875 4.98828125 -19.23046875 2.42578125 C-13.57121521 -1.80100526 -6.70253827 -1.72552211 0 0 Z " fill="#FBC900" transform="translate(119.23046875,147.57421875)"/>
<path d="M0 0 C3.73639216 1.24546405 4.18756513 2.63404953 6 6 C2.83526553 9.31302792 -0.34867248 12.60586524 -3.55200195 15.8815918 C-4.63888861 16.99865623 -5.72033011 18.12104569 -6.79614258 19.2487793 C-8.34356724 20.86897359 -9.90956323 22.4690097 -11.48046875 24.06640625 C-11.95775925 24.57466446 -12.43504974 25.08292267 -12.92680359 25.60658264 C-14.32104492 27.00219727 -14.32104492 27.00219727 -17 29 C-19.8449707 28.80834961 -19.8449707 28.80834961 -22 28 C-22.80834961 25.8449707 -22.80834961 25.8449707 -23 23 C-21.41445161 20.87385769 -19.97496243 19.27273833 -18.06640625 17.48046875 C-17.55448227 16.97703445 -17.04255829 16.47360016 -16.51512146 15.95491028 C-14.87778953 14.35114946 -13.22084525 12.76949462 -11.5625 11.1875 C-10.44851231 10.10360697 -9.33586411 9.01833543 -8.22460938 7.93164062 C-5.49835467 5.27151875 -2.75432238 2.63103698 0 0 Z " fill="#F27923" transform="translate(138,156)"/>
<path d="M0 0 C2.875 1.8125 2.875 1.8125 5 5 C5.41846508 8.77148279 5.22984488 12.18457498 5 16 C-0.28 16 -5.56 16 -11 16 C-11.60773481 5.91160221 -11.60773481 5.91160221 -8.875 1.8125 C-5.45015775 -0.34663968 -3.96628159 -0.82630866 0 0 Z " fill="#FEFEFE" transform="translate(179,72)"/>
<path d="M0 0 C2.64 0 5.28 0 8 0 C8 7.92 8 15.84 8 24 C5.36 24 2.72 24 0 24 C0 16.08 0 8.16 0 0 Z " fill="#30CFFF" transform="translate(160,24)"/>
<path d="M0 0 C2.64 0 5.28 0 8 0 C8 7.92 8 15.84 8 24 C3 23 3 23 1.19921875 21.01953125 C-0.46084857 16.83962233 -0.32445597 13.13681333 -0.1875 8.6875 C-0.17396484 7.85154297 -0.16042969 7.01558594 -0.14648438 6.15429688 C-0.11131217 4.10258502 -0.05751048 2.05120725 0 0 Z " fill="#2FCEFE" transform="translate(144,24)"/>
<path d="M0 0 C4.85855593 1.61951864 6.30969656 5.75529902 9 10 C3.06 10 -2.88 10 -9 10 C-2.97321429 2.90178571 -2.97321429 2.90178571 0 0 Z " fill="#FB9B03" transform="translate(165,190)"/>
<path d="M0 0 C0.99386719 0.02707031 1.98773438 0.05414063 3.01171875 0.08203125 C4.15060547 0.13423828 4.15060547 0.13423828 5.3125 0.1875 C4.35520084 1.31338014 3.39662105 2.4381715 2.4375 3.5625 C1.90382812 4.18898437 1.37015625 4.81546875 0.8203125 5.4609375 C-2.40985994 9.15973599 -2.40985994 9.15973599 -5.1875 9.4375 C-7.6875 9.1875 -7.6875 9.1875 -9.6875 7.1875 C-9.45956323 4.83215339 -8.89777978 3.47199618 -7.4921875 1.5703125 C-4.95524642 -0.37357742 -3.15205929 -0.11124915 0 0 Z " fill="#E95510" transform="translate(149.6875,199.8125)"/>
<path d="M0 0 C-1 3 -1 3 -2.75 3.9375 C-3.4925 4.288125 -4.235 4.63875 -5 5 C-6.68889872 6.3050581 -8.3603279 7.63360658 -10 9 C-8.9789114 5.32408105 -8.08564783 4.0660202 -5 1.6875 C-2 0 -2 0 0 0 Z " fill="#769C10" transform="translate(36,89)"/>
</svg>
