<?xml version="1.0" encoding="UTF-8"?>
<svg version="1.1" xmlns="http://www.w3.org/2000/svg" width="512" height="512">
<path d="M0 0 C0.89115509 -0.00974854 1.78231018 -0.01949707 2.70046997 -0.02954102 C22.63293108 -0.20264286 41.86559565 0.06369901 61.4453125 4.23828125 C62.77079102 4.51115967 62.77079102 4.51115967 64.12304688 4.78955078 C105.34784078 13.49342708 143.65278781 33.55407357 174.4453125 62.23828125 C175.83675916 63.45166344 177.23239889 64.66025928 178.6328125 65.86328125 C185.12642006 71.55168147 190.72060083 77.62806502 196.12890625 84.36328125 C197.62026628 86.21427785 199.13192996 88.04918974 200.66796875 89.86328125 C211.37655764 102.55494215 219.73850793 116.5738543 227.4453125 131.23828125 C227.79303711 131.88893555 228.14076172 132.53958984 228.49902344 133.20996094 C239.66788692 154.35997462 246.75126165 178.69014258 250.4453125 202.23828125 C250.62787598 203.39384521 250.81043945 204.54940918 250.99853516 205.73999023 C252.59886637 217.00999862 252.84447883 228.17905615 252.8203125 239.55078125 C252.81949677 240.99969254 252.81949677 240.99969254 252.81866455 242.47787476 C252.75654087 266.55129834 249.41615617 289.15610162 242.4453125 312.23828125 C242.19442871 313.07343262 241.94354492 313.90858398 241.68505859 314.76904297 C231.64027637 347.38390177 213.65619439 377.32137709 190.4453125 402.23828125 C189.23193031 403.62972791 188.02333447 405.02536764 186.8203125 406.42578125 C181.13191228 412.91938881 175.05552873 418.51356958 168.3203125 423.921875 C166.4693159 425.41323503 164.63440401 426.92489871 162.8203125 428.4609375 C150.1286516 439.16952639 136.10973945 447.53147668 121.4453125 455.23828125 C120.7946582 455.58600586 120.14400391 455.93373047 119.47363281 456.29199219 C98.32361913 467.46085567 73.99345117 474.5442304 50.4453125 478.23828125 C49.28974854 478.42084473 48.13418457 478.6034082 46.94360352 478.79150391 C35.67359513 480.39183512 24.5045376 480.63744758 13.1328125 480.61328125 C12.16687164 480.61273743 11.20093079 480.6121936 10.20571899 480.6116333 C-5.69146444 480.57060916 -20.9742443 479.64585488 -36.5546875 476.23828125 C-37.54082031 476.02397461 -38.52695313 475.80966797 -39.54296875 475.58886719 C-80.68601851 466.32763679 -118.66455293 447.01341561 -149.5546875 418.23828125 C-150.94613416 417.02489906 -152.34177389 415.81630322 -153.7421875 414.61328125 C-160.23579506 408.92488103 -165.82997583 402.84849748 -171.23828125 396.11328125 C-172.72964128 394.26228465 -174.24130496 392.42737276 -175.77734375 390.61328125 C-186.48593264 377.92162035 -194.84788293 363.9027082 -202.5546875 349.23828125 C-202.90241211 348.58762695 -203.25013672 347.93697266 -203.60839844 347.26660156 C-214.77726192 326.11658788 -221.86063665 301.78641992 -225.5546875 278.23828125 C-225.73725098 277.08271729 -225.91981445 275.92715332 -226.10791016 274.73657227 C-227.70824137 263.46656388 -227.95385383 252.29750635 -227.9296875 240.92578125 C-227.92914368 239.95984039 -227.92859985 238.99389954 -227.92803955 237.99868774 C-227.86591587 213.92526416 -224.52553117 191.32046088 -217.5546875 168.23828125 C-217.17836182 166.9855542 -217.17836182 166.9855542 -216.79443359 165.70751953 C-203.42490392 122.29738749 -175.36083111 81.26686088 -139.5546875 53.23828125 C-138.56984375 52.44808594 -137.585 51.65789062 -136.5703125 50.84375 C-98.53859031 20.59941859 -48.96468094 0.44659656 0 0 Z M-119.5546875 110.23828125 C-120.55551285 113.66071439 -120.55551285 113.66071439 -120.5546875 117.23828125 C-118.83242254 120.48678102 -118.83242254 120.48678102 -115.5546875 121.23828125 C-113.63561833 121.32094611 -111.71379276 121.34568788 -109.79296875 121.3359375 C-108.11557617 121.33110352 -108.11557617 121.33110352 -106.40429688 121.32617188 C-105.23705078 121.31779297 -104.06980469 121.30941406 -102.8671875 121.30078125 C-101.68833984 121.29626953 -100.50949219 121.29175781 -99.29492188 121.28710938 C-96.38145961 121.27531398 -93.46809887 121.25885395 -90.5546875 121.23828125 C-90.44125 122.49769531 -90.3278125 123.75710937 -90.2109375 125.0546875 C-89.60022499 130.54357369 -88.37215077 135.81935202 -87.0546875 141.17578125 C-86.71630859 142.59213867 -86.71630859 142.59213867 -86.37109375 144.03710938 C-85.31145771 148.76058316 -85.31145771 148.76058316 -83.5546875 153.23828125 C-84.80604492 153.22780762 -86.05740234 153.21733398 -87.34667969 153.20654297 C-91.9908563 153.1703336 -96.63502043 153.14737729 -101.27929688 153.12841797 C-103.28908385 153.11836255 -105.2988562 153.1047164 -107.30859375 153.08740234 C-110.19795338 153.06313401 -113.08711952 153.05179354 -115.9765625 153.04296875 C-116.87461609 153.03264618 -117.77266968 153.02232361 -118.69793701 153.01168823 C-119.9587912 153.01146164 -119.9587912 153.01146164 -121.24511719 153.01123047 C-121.98236023 153.00678925 -122.71960327 153.00234802 -123.47918701 152.99777222 C-125.90079614 153.27838832 -127.48815108 153.95811754 -129.5546875 155.23828125 C-130.96910624 158.06711872 -130.87369082 160.1120487 -130.5546875 163.23828125 C-128.78867584 165.31381497 -127.303506 166.13631213 -124.59791374 166.50474167 C-122.04988548 166.61397713 -119.51878902 166.61717481 -116.96850586 166.59130859 C-115.99738358 166.59346878 -115.02626129 166.59562897 -114.02571106 166.59785461 C-111.91843058 166.60094136 -109.81113212 166.5973364 -107.70387077 166.58784103 C-104.37143771 166.57412369 -101.03960149 166.58052709 -97.70716858 166.59268188 C-88.23336891 166.62368067 -78.75970763 166.61872251 -69.28588867 166.59863281 C-63.4910105 166.58774037 -57.69658152 166.60085019 -51.90176582 166.62852859 C-49.69091638 166.63398301 -47.48002238 166.62987019 -45.26920891 166.61613083 C-42.18279569 166.59716909 -39.09786083 166.60842855 -36.01147461 166.62646484 C-35.09347076 166.61312607 -34.17546692 166.59978729 -33.22964478 166.58604431 C-30.89725495 166.61646296 -28.82022971 166.68468847 -26.5546875 167.23828125 C-24.41676331 169.57339478 -24.41676331 169.57339478 -23.5546875 172.23828125 C-24.7546875 177.43828125 -24.7546875 177.43828125 -26.5546875 179.23828125 C-28.11917133 179.36091513 -29.68901522 179.41607647 -31.25805664 179.44360352 C-32.25901871 179.46354874 -33.25998077 179.48349396 -34.29127502 179.50404358 C-35.3798027 179.52075607 -36.46833038 179.53746857 -37.58984375 179.5546875 C-38.69823105 179.5754686 -39.80661835 179.59624969 -40.94859314 179.61766052 C-44.50472558 179.68327748 -48.06093453 179.74209721 -51.6171875 179.80078125 C-54.02149243 179.84395493 -56.42578949 179.88756883 -58.83007812 179.93164062 C-64.73819935 180.03897117 -70.64639741 180.14071456 -76.5546875 180.23828125 C-76.0596875 184.69328125 -76.0596875 184.69328125 -75.5546875 189.23828125 C-76.69357422 189.29435547 -76.69357422 189.29435547 -77.85546875 189.3515625 C-78.84933594 189.41730469 -79.84320313 189.48304688 -80.8671875 189.55078125 C-81.85332031 189.60878906 -82.83945313 189.66679687 -83.85546875 189.7265625 C-86.83076313 190.29061976 -87.75510294 190.86235915 -89.5546875 193.23828125 C-90.62715067 195.79569343 -90.71544957 196.8054603 -89.7421875 199.42578125 C-88.67346763 201.38850318 -88.67346763 201.38850318 -86.5546875 202.23828125 C-84.54943343 202.35349786 -82.54041757 202.4052168 -80.53198242 202.42773438 C-79.26694382 202.4444519 -78.00190521 202.46116943 -76.6985321 202.47839355 C-75.68129846 202.48841652 -75.68129846 202.48841652 -74.64351463 202.49864197 C-72.5205889 202.51967558 -70.39781482 202.54670073 -68.27497864 202.57531738 C-63.7641068 202.63503546 -59.25316357 202.68713585 -54.7421875 202.73828125 C-49.52500426 202.79758478 -44.30789479 202.86001868 -39.09084511 202.93016052 C-37.00314836 202.95664444 -34.9154439 202.97751797 -32.8276825 202.99816895 C-31.55318741 203.01488647 -30.27869232 203.031604 -28.96557617 203.04882812 C-27.28584969 203.06762024 -27.28584969 203.06762024 -25.57218933 203.08679199 C-22.79315867 203.22630915 -20.2602436 203.60915259 -17.5546875 204.23828125 C-16.53807173 208.60972907 -16.38579991 211.24296201 -18.5546875 215.23828125 C-20.95114494 216.43650997 -22.51130777 216.3945544 -25.18798828 216.44360352 C-26.14883331 216.46354874 -27.10967834 216.48349396 -28.09963989 216.50404358 C-29.13925873 216.52075607 -30.17887756 216.53746857 -31.25 216.5546875 C-32.31258026 216.5754686 -33.37516052 216.59624969 -34.46994019 216.61766052 C-37.87312188 216.68318386 -41.27638239 216.74205398 -44.6796875 216.80078125 C-46.98308116 216.84396382 -49.28646676 216.88757802 -51.58984375 216.93164062 C-57.24471034 217.03886812 -62.89965642 217.14012774 -68.5546875 217.23828125 C-67.8946875 220.53828125 -67.2346875 223.83828125 -66.5546875 227.23828125 C-68.23014648 227.21733398 -69.90560547 227.19638672 -71.63183594 227.17480469 C-77.84138459 227.10246547 -84.05089592 227.0565029 -90.26074219 227.01855469 C-92.94973216 227.00068225 -95.63834576 226.9728365 -98.32714844 226.93652344 C-102.18956311 226.8880651 -106.05139958 226.86532499 -109.9140625 226.84765625 C-111.118349 226.82701111 -112.3226355 226.80636597 -113.56341553 226.78509521 C-114.68427551 226.78479309 -115.8051355 226.78449097 -116.95996094 226.78417969 C-118.43888824 226.77085602 -118.43888824 226.77085602 -119.94769287 226.75726318 C-123.29554962 227.37497814 -124.47550154 228.59631494 -126.5546875 231.23828125 C-127.13819255 233.7811875 -127.13819255 233.7811875 -126.5546875 236.23828125 C-124.96038214 238.32656247 -124.07508474 239.14393682 -121.46318913 239.61745548 C-120.24730185 239.62047247 -120.24730185 239.62047247 -119.0068512 239.62355042 C-118.07453674 239.63319824 -117.14222229 239.64284607 -116.18165588 239.65278625 C-115.16079391 239.64820908 -114.13993195 239.6436319 -113.08813477 239.63891602 C-112.01147552 239.64589508 -110.93481628 239.65287415 -109.82553101 239.6600647 C-106.25730647 239.68010244 -102.68936965 239.67954147 -99.12109375 239.6796875 C-96.64630853 239.69145272 -94.17153043 239.70481482 -91.69676208 239.7197113 C-84.50533947 239.75968003 -77.31396079 239.77929181 -70.12245178 239.79588318 C-60.35141828 239.81974997 -50.5804972 239.85933044 -40.80958366 239.91316032 C-37.15789946 239.92952258 -33.50634591 239.93327039 -29.85462952 239.93617249 C-27.61996229 239.94594724 -25.38529712 239.95621026 -23.15063477 239.96704102 C-21.62237816 239.96321159 -21.62237816 239.96321159 -20.06324768 239.95930481 C-19.1281134 239.96613281 -18.19297913 239.97296082 -17.22950745 239.97999573 C-16.4185389 239.98163003 -15.60757036 239.98326433 -14.77202702 239.98494816 C-12.24250322 240.27394859 -10.66552737 240.81367166 -8.5546875 242.23828125 C-7.5546875 245.61328125 -7.5546875 245.61328125 -7.5546875 249.23828125 C-8.87402344 251.42675781 -8.87402344 251.42675781 -11.5546875 253.23828125 C-15.1781569 253.86187729 -18.77538455 253.84327558 -22.4453125 253.84765625 C-23.50506287 253.8641925 -24.56481323 253.88072876 -25.65667725 253.89776611 C-29.03940581 253.9463268 -32.42168455 253.96763562 -35.8046875 253.98828125 C-38.09898106 254.01643408 -40.3932536 254.04636053 -42.6875 254.078125 C-48.30985882 254.15208839 -53.93196673 254.20161408 -59.5546875 254.23828125 C-59.2246875 257.53828125 -58.8946875 260.83828125 -58.5546875 264.23828125 C-60.0809375 264.79515625 -61.6071875 265.35203125 -63.1796875 265.92578125 C-70.4878749 268.89441026 -74.98157442 272.76264112 -78.57421875 279.78515625 C-81.25618478 286.49541388 -81.11662848 292.99243273 -78.75390625 299.78125 C-75.32565444 306.80525779 -70.09696641 311.80906149 -62.80859375 314.59765625 C-59.38105213 315.57186219 -56.10755161 315.97989113 -52.5546875 316.23828125 C-53.13476562 316.56699219 -53.71484375 316.89570313 -54.3125 317.234375 C-61.50119268 321.61164827 -65.26843972 326.56186534 -68.9296875 334.05078125 C-70.63669116 342.7564999 -70.34027258 350.62678687 -65.5546875 358.23828125 C-60.58862773 365.50954118 -54.44561225 369.88336856 -45.8203125 371.8671875 C-37.48374102 372.98579526 -30.30674666 371.35267845 -23.3046875 366.67578125 C-16.15767575 360.78745375 -12.79339362 353.19315818 -11.6796875 344.12109375 C-11.31962585 335.81717188 -14.17451546 329.51123293 -19.5546875 323.23828125 C-23.97575232 318.95242403 -23.97575232 318.95242403 -29.5546875 317.23828125 C-29.5546875 316.57828125 -29.5546875 315.91828125 -29.5546875 315.23828125 C34.3003125 315.73328125 34.3003125 315.73328125 99.4453125 316.23828125 C95.4853125 319.20828125 95.4853125 319.20828125 91.4453125 322.23828125 C85.25651606 328.42707769 82.43547284 334.37425559 82.0078125 343.17578125 C82.31710655 351.4880589 85.7101725 358.49352772 91.40625 364.48046875 C98.07540172 370.22973747 105.69044633 372.63965047 114.4453125 372.23828125 C122.87064525 371.02381887 129.66029989 366.85415028 135.046875 360.28515625 C139.80358534 353.2196333 141.06515525 346.46159338 140.0390625 338.04296875 C138.3643068 330.13195169 134.5289543 324.66510851 128.41015625 319.515625 C126.39857201 318.20789528 124.79197414 317.6616211 122.4453125 317.23828125 C122.4453125 316.57828125 122.4453125 315.91828125 122.4453125 315.23828125 C123.34894531 315.2846875 124.25257813 315.33109375 125.18359375 315.37890625 C126.36308594 315.415 127.54257812 315.45109375 128.7578125 315.48828125 C129.92957031 315.5346875 131.10132813 315.58109375 132.30859375 315.62890625 C135.50072577 315.54559186 135.50072577 315.54559186 137.37109375 313.41796875 C138.89375362 310.32835345 138.431988 308.48021504 137.4453125 305.23828125 C133.78455493 302.79777621 131.06743181 302.95705161 126.83586121 302.97999573 C126.05348927 302.97632002 125.27111734 302.97264432 124.46503717 302.96885723 C121.83494279 302.95885137 119.20505877 302.96303316 116.57495117 302.96704102 C114.69263992 302.96265541 112.8103306 302.95735386 110.92802429 302.95120239 C106.86996968 302.93968767 102.81196739 302.93424189 98.75389671 302.933321 C92.33761706 302.93138332 85.92144584 302.9133464 79.50520325 302.89256287 C63.56561252 302.84333034 47.62599224 302.81248951 31.68634033 302.79125977 C19.30489529 302.77474256 6.92354285 302.75193914 -5.45784014 302.70823902 C-11.83626874 302.68644452 -18.21452152 302.67840655 -24.5929848 302.68063176 C-28.56265667 302.67896536 -32.53221374 302.66491865 -36.50184441 302.64741898 C-38.34247122 302.64181801 -40.18312182 302.64133558 -42.02375031 302.64635658 C-44.5375247 302.65249471 -47.05057397 302.64027234 -49.56428528 302.62355042 C-50.29182394 302.62976223 -51.01936261 302.63597405 -51.7689479 302.6423741 C-56.42310903 302.58600147 -59.59311787 301.67282142 -63.5546875 299.23828125 C-66.81610142 295.54201215 -66.96241999 292.12306143 -66.7734375 287.390625 C-66.49050464 284.60676778 -66.0667232 282.61433735 -64.5546875 280.23828125 C-60.51037948 278.13776217 -57.03525402 277.9859214 -52.52215576 277.97999573 C-51.82594628 277.97632002 -51.12973679 277.97264432 -50.41243005 277.96885723 C-48.08575064 277.95889849 -45.75931124 277.96302379 -43.43261719 277.96704102 C-41.76177212 277.96265264 -40.09092924 277.95735008 -38.42008972 277.95120239 C-34.82425346 277.93970842 -31.22847609 277.9342434 -27.63262177 277.933321 C-21.94205885 277.93137861 -16.25161744 277.91331522 -10.56109619 277.89256287 C3.57579208 277.84339387 17.71271339 277.81251323 31.84967041 277.79125977 C42.83224899 277.77472191 53.81472347 277.75186051 64.79723239 277.70823902 C70.44893512 277.68650378 76.1004399 277.67840103 81.75218153 277.68063176 C85.27623363 277.67895986 88.80015755 277.66487937 92.32416344 277.64741898 C93.95228578 277.64184015 95.58043494 277.64131509 97.20855904 277.64635658 C111.97007463 277.84860033 111.97007463 277.84860033 124.7578125 271.11328125 C125.37269531 270.59507812 125.98757813 270.076875 126.62109375 269.54296875 C131.34910735 263.56967534 133.26005719 255.98822172 135.01074219 248.69873047 C135.23565842 247.79182465 135.46057465 246.88491882 135.69230652 245.95053101 C136.42573388 242.98335338 137.14687134 240.01335414 137.8671875 237.04296875 C138.37662926 234.96497371 138.88658637 232.88710495 139.39703369 230.80935669 C140.4614263 226.46846319 141.51974991 222.12614778 142.57373047 217.78271484 C143.92310123 212.2240125 145.28733304 206.66908483 146.65607834 201.11512566 C147.71029512 196.83055661 148.75675529 192.54412227 149.80088043 188.25708389 C150.30088762 186.2080453 150.80325964 184.15958225 151.30806732 182.11172104 C152.0123975 179.24934117 152.7062633 176.3846182 153.39746094 173.51904297 C153.60624374 172.67937988 153.81502655 171.8397168 154.03013611 170.97460938 C155.14067175 166.31616776 155.83818243 162.06385186 155.4453125 157.23828125 C153.72304754 153.98978148 153.72304754 153.98978148 150.4453125 153.23828125 C147.52080034 153.13213825 144.61950876 153.08342408 141.6945343 153.08006287 C140.78950596 153.07512489 139.88447761 153.07018691 138.95202416 153.0650993 C135.90722699 153.04969197 132.86245095 153.04135491 129.81762695 153.03295898 C127.63987033 153.023383 125.46211558 153.01337309 123.28436279 153.00296021 C117.36118756 152.97587474 111.43800433 152.9548849 105.51480126 152.93495822 C99.3287969 152.91312111 93.14281729 152.88572131 86.95683289 152.85890198 C75.23780274 152.80894428 63.51875888 152.76401687 51.79970187 152.72087961 C38.46008696 152.67161245 25.12049798 152.61660566 11.78090727 152.56120002 C-15.66426783 152.44733274 -43.10946674 152.34050405 -70.5546875 152.23828125 C-70.83143311 151.01197998 -71.10817871 149.78567871 -71.39331055 148.5222168 C-72.42585504 143.97193118 -73.48509211 139.42821087 -74.55249023 134.88598633 C-75.01064367 132.91957554 -75.46154887 130.95146128 -75.9050293 128.98168945 C-76.5439674 126.14965878 -77.20876793 123.3247881 -77.87890625 120.5 C-78.07183762 119.61865891 -78.26476898 118.73731781 -78.46354675 117.82926941 C-79.63741723 112.86589393 -79.63741723 112.86589393 -83.01829529 109.18269348 C-86.28236844 107.9673331 -88.98227252 107.86638611 -92.46484375 107.875 C-93.78419922 107.87564453 -95.10355469 107.87628906 -96.46289062 107.87695312 C-97.14488525 107.88525146 -97.82687988 107.8935498 -98.52954102 107.90209961 C-100.6144869 107.92575062 -102.69815655 107.92264573 -104.78320312 107.91601562 C-112.55922991 107.52018342 -112.55922991 107.52018342 -119.5546875 110.23828125 Z " fill="#006893" transform="translate(243.5546875,15.76171875)"/>
<path d="M0 0 C3.95308729 2.62694476 6.27363016 5.52609482 7.765625 10.08984375 C8.49287705 15.7849443 8.07183014 20.24074288 4.765625 25.08984375 C0.75996031 29.03141781 -2.32929341 31.23702408 -7.984375 31.33984375 C-12.47840707 31.2815638 -15.45614871 30.69861904 -19.234375 28.08984375 C-23.00744115 24.21197021 -25.06989132 20.42216135 -25.33984375 14.953125 C-25.09155946 9.53684923 -23.547432 6.46368208 -19.90234375 2.5 C-14.488177 -2.07731662 -6.52312497 -2.65714706 0 0 Z " fill="#004671" transform="translate(211.234375,343.91015625)"/>
<path d="M0 0 C4.43643815 1.98055275 7.07163851 4.5730401 9.3046875 8.9453125 C10.88244223 13.60766637 10.84295562 18.37636297 9.33984375 23.0546875 C7.45487667 26.85726178 4.85726178 29.45487667 1.0546875 31.33984375 C-4.29781099 33.05956285 -9.83743388 32.9478342 -14.875 30.375 C-19.3004737 27.01163999 -21.42362059 24.03654057 -22.9375 18.6875 C-23.02726763 13.39121011 -22.15324761 8.41667683 -18.53125 4.3515625 C-12.63109581 -0.65199963 -7.51332189 -0.68839337 0 0 Z " fill="#006893" transform="translate(361,343)"/>
</svg>
